<?xml version="1.0" encoding="UTF-8"?>
<svg id="Layer_1" xmlns="http://www.w3.org/2000/svg" version="1.1" viewBox="0 0 187 200">
  <!-- Generator: Adobe Illustrator 29.1.0, SVG Export Plug-In . SVG Version: 2.1.0 Build 142)  -->
  <defs>
    <style>
      .st0 {
        fill: #cacaca;
      }

      .st1 {
        fill: #cdcdcd;
      }

      .st2 {
        fill: #c8c8c8;
      }

      .st3 {
        fill: #c7c7c7;
      }

      .st4 {
        fill: #bb1c1b;
      }

      .st5 {
        fill: #ccc;
      }

      .st6 {
        fill: #c6c6c6;
      }

      .st7 {
        fill: #fbf7f6;
      }
    </style>
  </defs>
  <path class="st4" d="M175.59,16.82c-1.82,55.13,11.48,120.17-35.8,160.7-4.38,3.75-27.88,22.19-31.61,10.71-3.94-24.3,7.55-95.84-8.19-113.2-1.83-2.02-10.18-7.47-12.43-7.47H22.41v16.92h47.25c9.38,0,12.5,7.87,13.4,15.45,1.01,8.57.72,84.28-1.25,88.25-5.29,10.65-27.48-6.67-33-11.2C-1.46,135.74,13.77,74.17,11.46,16.82h164.12ZM171.61,20.8H15.44c-.46,62.21-10.65,142.83,62.66,167.16v-94.03c0-1.59-4.62-4.48-5.47-4.48H19.92c-.11,0-1.49-1.39-1.49-1.49v-23.88c0-.11,1.39-1.49,1.49-1.49h59.18v-31.84h32.82v31.84h55.2c.11,0,1.49,1.39,1.49,1.49v23.88c0,.11-1.39,1.49-1.49,1.49h-50.73c-.46,0-4.48,4.8-4.48,5.47v91.54c0,4.56,11.67-2.43,12.85-3.07,28.93-15.63,44.52-53.02,46.87-84.46.62-8.35,2.73-75.38-.03-78.14ZM107.95,34.73h-24.87v27.36c3.99-.78,16.45,7.66,17.38,7.47.48-.1,7.49-5.98,7.49-6.47v-28.36ZM115.41,85.48c13.94-1.51,33.15,0,47.74,0,.11,0,1.49-1.39,1.49-1.49v-15.92c0-.11-1.39-1.49-1.49-1.49h-51.72c-.42,0-5.58,2.41-6.03,2.92-1.68,1.92,3.79,18.28,4.54,18.97,1.15,1.04,4.34-2.86,5.46-2.98Z"/>
  <path class="st7" d="M171.61,20.8c2.76,2.76.66,69.79.03,78.14-2.35,31.44-17.93,68.83-46.87,84.46-1.18.64-12.85,7.63-12.85,3.07v-91.54c0-.67,4.02-5.47,4.48-5.47h50.73c.11,0,1.49-1.39,1.49-1.49v-23.88c0-.11-1.39-1.49-1.49-1.49h-55.2v-31.84h-32.82v31.84H19.92c-.11,0-1.49,1.39-1.49,1.49v23.88c0,.11,1.39,1.49,1.49,1.49h52.72c.85,0,5.47,2.88,5.47,4.48v94.03C4.8,163.63,14.98,83.01,15.44,20.8h156.16ZM167.63,23.79H19.42v17.91h55.7v-13.93h39.79v13.93h52.72v-17.91ZM75.12,44.68H19.42v14.93h55.7v-14.93ZM167.63,44.68h-52.72v14.93h52.72v-14.93ZM75.12,104.38c-.07-3.9,1.61-11.94-4.48-11.94H19.42c-.6,0-.6,11.94,0,11.94h55.7ZM118.39,92.44c-3.09.89-4.99,11.94-1.99,11.94h50.73c2.21,0,2.21-11.94,0-11.94h-48.74ZM75.12,107.37c-1.93-1.94-48.1,1.48-54.71,0,.03.98.49,9.95.99,9.95h53.71c.5,0,.35-9.6,0-9.95ZM167.63,107.37c-1.97-1.76-45.88,0-52.72,0-.5,0-.5,9.95,0,9.95h50.73c.51,0,2.37-9.61,1.99-9.95ZM75.12,120.3c-1.86-1.87-46.33,1.43-52.72,0,.37.99,1.53,8.96,1.99,8.96h50.73c.45,0,.32-8.64,0-8.96ZM164.65,120.3c-1.83-1.68-43.57,1.28-49.73,0,.35,2.51-1.27,7.34,1.64,8.81,1.99,1.01,42.5.84,44.65.22,2.81-.81,3.95-8.58,3.45-9.03ZM75.12,134.23c-1.67-1.7-41.92,1.3-47.74,0-.12.9,1.63,6.97,1.99,6.97h45.76c.35,0,.24-6.72,0-6.97ZM160.67,134.23c-1.72-1.39-38.53,0-44.26,0-1.75,0-1.66,5.7-1.49,6.97h43.77c.36,0,2.27-6.74,1.99-6.97ZM75.12,148.16c-1.43-1.46-35.74,1.11-40.78,0-.65,1.72,3.83,6.97,4.48,6.97h36.31c.35,0,.24-6.72,0-6.97ZM153.7,148.16c-1.51-1.22-33.73,0-38.79,0-.35,0-.35,6.97,0,6.97h35.81c.38,0,3.28-6.73,2.98-6.97ZM45.28,162.09c-.53,1.54,4.1,5.97,4.48,5.97h24.87c1.97,0,1.97-5.97,0-5.97h-29.34ZM143.76,162.09c-1.08-.84-23.63,0-27.35,0-1.55,0-1.75,4.79-1.49,5.97h24.37c.37,0,5.54-5.14,4.48-5.97ZM74.94,178.19c-2-1.02-8.09.35-10.76-.16,2.63,6.85,17.33,3.51,10.76.16ZM126.84,178.03c-2.5-.48-17.58-.63-11.93,3.96,1.6,1.3,10.85-1.05,11.93-3.96Z"/>
  <polygon class="st3" points="167.63 23.79 167.63 41.7 114.91 41.7 114.91 27.77 75.12 27.77 75.12 41.7 19.42 41.7 19.42 23.79 167.63 23.79"/>
  <rect class="st3" x="19.42" y="44.68" width="55.7" height="14.93"/>
  <rect class="st6" x="114.91" y="44.68" width="52.72" height="14.93"/>
  <path class="st2" d="M75.12,104.38H19.42c-.6,0-.6-11.94,0-11.94h51.23c6.08,0,4.4,8.04,4.48,11.94Z"/>
  <path class="st2" d="M118.39,92.44h48.74c2.21,0,2.21,11.94,0,11.94h-50.73c-3,0-1.1-11.05,1.99-11.94Z"/>
  <path class="st6" d="M75.12,107.37c.35.35.5,9.95,0,9.95H21.41c-.5,0-.96-8.97-.99-9.95,6.61,1.48,52.77-1.94,54.71,0Z"/>
  <path class="st6" d="M167.63,107.37c.38.34-1.48,9.95-1.99,9.95h-50.73c-.5,0-.5-9.95,0-9.95,6.84,0,50.75-1.76,52.72,0Z"/>
  <path class="st2" d="M75.12,120.3c.32.32.45,8.96,0,8.96H24.4c-.46,0-1.62-7.97-1.99-8.96,6.39,1.43,50.86-1.87,52.72,0Z"/>
  <path class="st2" d="M164.65,120.3c.5.45-.64,8.22-3.45,9.03-2.15.62-42.66.79-44.65-.22-2.91-1.47-1.28-6.3-1.64-8.81,6.16,1.28,47.9-1.68,49.73,0Z"/>
  <path class="st3" d="M75.12,134.23c.24.25.35,6.97,0,6.97H29.37c-.36,0-2.11-6.06-1.99-6.97,5.83,1.3,46.07-1.7,47.74,0Z"/>
  <path class="st3" d="M160.67,134.23c.28.23-1.63,6.97-1.99,6.97h-43.77c-.17-1.27-.26-6.97,1.49-6.97,5.73,0,42.54-1.39,44.26,0Z"/>
  <path class="st6" d="M75.12,148.16c.24.25.35,6.97,0,6.97h-36.31c-.65,0-5.12-5.24-4.48-6.97,5.04,1.11,39.35-1.46,40.78,0Z"/>
  <path class="st6" d="M153.7,148.16c.29.24-2.61,6.97-2.98,6.97h-35.81c-.35,0-.35-6.97,0-6.97,5.07,0,37.28-1.22,38.79,0Z"/>
  <path class="st1" d="M45.28,162.09h29.34c1.97,0,1.97,5.97,0,5.97h-24.87c-.37,0-5-4.43-4.48-5.97Z"/>
  <path class="st1" d="M143.76,162.09c1.06.83-4.1,5.97-4.48,5.97h-24.37c-.25-1.18-.05-5.97,1.49-5.97,3.72,0,26.27-.84,27.35,0Z"/>
  <path class="st5" d="M74.94,178.19c6.57,3.34-8.13,6.68-10.76-.16,2.67.51,8.76-.85,10.76.16Z"/>
  <path class="st0" d="M126.84,178.03c-1.08,2.91-10.34,5.25-11.93,3.96-5.65-4.58,9.43-4.44,11.93-3.96Z"/>
</svg>