<?xml version="1.0" encoding="UTF-8"?>
<svg id="Layer_1" xmlns="http://www.w3.org/2000/svg" version="1.1" viewBox="0 0 1920 1080">
  <!-- Generator: Adobe Illustrator 29.1.0, SVG Export Plug-In . SVG Version: 2.1.0 Build 142)  -->
  <defs>
    <style>
      .st0 {
        fill: #053077;
      }

      .st1 {
        fill: #10387a;
      }

      .st2 {
        fill: #f4f5f7;
      }

      .st3 {
        fill: #edeff3;
      }

      .st4 {
        fill: #415788;
      }

      .st5 {
        fill: #fafafb;
      }

      .st6 {
        fill: #043279;
      }

      .st7 {
        fill: #afb7cb;
      }

      .st8 {
        fill: #f7f8f9;
      }

      .st9 {
        fill: #fbfcfc;
      }

      .st10 {
        fill: #2e4880;
      }

      .st11 {
        fill: #fcfcfd;
      }

      .st12 {
        fill: #485c8b;
      }

      .st13 {
        fill: #b9c0d0;
      }

      .st14 {
        fill: #082a70;
      }

      .st15 {
        fill: #21407b;
      }

      .st16 {
        fill: #fdfdfd;
      }

      .st17 {
        fill: #e1e4eb;
      }
    </style>
  </defs>
  <path class="st1" d="M972,315c3.74,2.78,10.44,2.33,15,2,.66-.05,1.34.03,2,0,3.05,1.76,7.55,2.13,11,2,.66-.03,1.33.02,2,0,2.03,2.04,5.27,2.08,8,2,.67-.02,1.34.03,2,0,2.36,1.9,6.77,2.89,9.78,3.72,2.51.69,6.96,2.2,9.22,2.28.66.02,1.34,0,2,0l31.87,14.63c5.87,3.79,12.1,7.15,18.13,10.37.26.14.74-.14,1,0,1.56,4.25,8.15,7.07,12,9,.33.34.67.67,1,1,4.19,4.16,6.42,5.68,11,9,.42.31.69.77,1,1,1.24.91,1.96,1.29,3,2,2.17,5.76,11.56,12.24,16,17,.32.34.68.65,1,1,1.08,1.17,3.63,4.36,5,6,.31.37.69.65,1,1,1.39,1.54-.12.93,3,3,.16.11-.14.72,0,1,7.18,14.66,20.77,28.77,26.69,44.81l8.31,19.19c.04.66-.03,1.34,0,2,.08,1.84-.08,3.38,2,4,0,.67,0,1.33,0,2,.02,2.04-.42,4.25,2,5-.03,1,.02,2,0,3-.03,1.33-.01,2.67,0,4.01h2c-.09.98.05,2,0,2.99-.11,1.99.05,4.02,0,6.01h2c-.03,1.32,0,2.66,0,3.99-.01,2.74-.96,6.92,2,8-.03,1.99.12,4.02,0,6-.14,2.27.26,4.81,0,7-.04.32-1.66,1.5-.99,3h2.99v2h-2s-.02.62-.02.62l.02,6.38h2s0,23.99,0,23.99c-2.73,2-2.04,5.94-2,9,.02,1.67-.04,3.34,0,5-2.27,2.34-2.06,5.96-2,9,.02,1-.01,2,0,3-2.31,1.56-2.1,4.56-2,7,.03.66-.02,1.33,0,2-2.1,1.36-2.01,3.73-2,6,0,.67,0,1.33,0,2-1.83,1.14-1.91,3.04-2,5-.03.66.08,1.35,0,2l-10.64,25.86c-4.42,8.34-8.47,17.08-13.36,25.14-1.08,1.79-1.66,3.14-3,5-1.89,2.63-2.26,1.76-4,6-.12.29.12.71,0,1-2.83.07-4.35,3.54-5,6-.35.31-.64.7-1,1-2.64,2.16-1.99,2.77-3,4-.59.72-.92,1.92-1,2-1.55,1.44-1.36,1.13-3,3-.86.98-2.03,1.96-3,3-3.29,3.52-7.11,5.03-9,10-3.44,1.3-1.36,1.41-2,2-1.35,1.24-2.2,2.25-3,3-.36.34-1.45.31-3,2-.94,1.02-2.04,1.97-3,3-5.83,2.95-10.39,7.96-15.68,11.82-14.27,10.4-29.68,19-45.81,26.19l-27.5,10c-.67-.01-1.33,0-2,0-2.04.02-4.58.46-6,2-.67-.01-1.33.01-2,0-2.39-.04-5.26.19-7,2-.67-.02-1.33.02-2,0-3.02-.11-6.68-.24-9,2-1.67-.03-3.33.03-5,0-4.07-.07-10.13-1.1-13,2h-24c-3.63-3.26-11.09-2.06-16-2-.67,0-1.33-.01-2,0-3.08-1.82-7.51-2.05-11-2-.67,0-1.33-.01-2,0-2.04-2.04-5.27-2.07-8-2-.67.02-1.33,0-2,0-1.36-2.1-3.73-2.01-6-2-.67,0-1.33,0-2,0-1.14-1.83-3.04-1.91-5-2-.66-.03-1.35.08-2,0l-43-19c-.62-.11-1.51.17-2,0,.16-3.59-3.28-3.02-5-4-4.79-2.72-9.05-6.32-14-9,.12-2.49-2.92-3.43-5-4-.28-.35-.69-.66-1-1-2.49-2.73-5.52-5.82-9-7-.96-1.11-2.1-2-3-3-1.99-2.21-5.63-4.58-6-5-1.28-1.47-.91-.97-2-2-.13-.12-1.88-1.87-2-2-1.03-1.09-.5-.7-2-2-2.03-1.76-1.37-4.88-7-7-.74-1.13.07-1.24-2-3-.38-.33-.69-.75-1-1-1.11-3.54-4.36-6.42-7-9-.34-.33-.66-.68-1-1-.58-3.22-2.7-5.08-5-7-.36-.3-.67-.78-1-1,.35-1.93-1.48-2.3-2-3s-1.56-3.14-2-4c-1.8-3.56-.93-1.56-3-3-.16-.11.13-.7,0-1l-21-44c-.09-.64.06-1.35,0-2l-6-19c.03-.66-.03-1.34,0-2,.11-2.44.31-5.44-2-7,.01-1-.02-2,0-3,.06-3.04.27-6.66-2-9-.03-1.65.12-3.36,0-5-.1-1.41-1.18-5.63-2-7v-30h2s.02-.62.02-.62l-.02-5.38h-2s0-4.99,0-4.99c3.48.12,2.77.63,3-2.45,2.58-34.61,14.93-57.92,28-88.55.12-.28-.11-.71,0-1,2.24.51,2.11-1.23,2.98-2.47,3.09-4.45,6.96-9.57,9.02-14.53.12-.28-.11-.7,0-1,2.03.08,3.1-1.01,3-3,.17-.12-.15-.77,0-1,3.21-.98,6.69-6.01,8-9,.12-.28-.12-.72,0-1,2.49-.34,4.9-3.08,6.57-4.97,1.04-1.18,1.19-2.75,1.43-3.03,2.37-2.72,6.27-6.69,9-9,1.54-1.31,6.05-2.09,6-6,.36-.33.68-.74,1-1,2.97.34,5.66-2.05,6-5,.59-.33,1.26-.58,2-1,2.54-1.46,6.79-2.11,7-6,.27-.13.74.14,1,0,22.42-11.66,36.5-21.15,61.22-30.33,1.58-.59,3.3-.08,2.78-2.67,2.29-.66,4.71-1.43,7-2l.67.81,4.34.19v-2c2.34-.54,3.92-.62,5.99-1,1.75-.32,3.76-.58,5-2,1.65.02,3.35.09,5,0,5.65-.31,11.75-.62,17.38-1.12,2.31-.21,7.5-.49,8.62-2.88h25ZM798.59,673.41c96.82,117.52,280.25,95.5,348.93-39.39,72.83-143.04-39.72-312.93-199.02-303.02-171.92,10.7-260,208.77-149.91,342.42Z"/>
  <path class="st11" d="M934,315l-1.58.93-11.36,1.15-.06,1.92c-1.65.09-3.35.02-5,0-1.53-.02-5.6-1.68-5,2-2.08.38-3.65.46-6,1-1.61.37-3.12.54-5,1-2.29.57-4.71,1.34-7,2-20.12,5.82-44.33,16.79-61.12,29.38-1.38,1.03-3.03,1.34-2.88,3.62-.26.14-.73-.13-1,0-2.61,1.3-6.63,2.7-7,6-.74.42-1.41.67-2,1-3.89,2.16-3.44,2.88-6,5-.32.26-.64.67-1,1-1.34,1.21-6.15,2.13-6,6-2.73,2.31-6.63,6.28-9,9-3.84,1-6.53,4.63-8,8-.12.28.12.72,0,1-3.99.08-3.93,3.75-5.34,5.67-.85,1.16-1.47,1.53-2.66,3.33-.15.23.17.88,0,1-1.57,1.12-1.59-.88-3,3-.11.3.12.72,0,1-2.27-.15-2.59,1.49-3.62,2.88-3.18,4.31-6.46,9.2-8.38,14.12-.11.29.12.72,0,1-2.43-.54-2.07,1.22-2.81,2.64-14.78,27.99-24.35,56.09-28.19,87.36v-202h199Z"/>
  <path class="st16" d="M1185,566v199h-199v-2c1.67.03,3.33-.03,5,0,.13,0,.97,1.04,2.41,1.06,2.01.02,4.34-1.28,6.53-1.13l.06-1.92c.67.02,1.33-.02,2,0,.16,0,.78.95,1.6.99,2.26.13,6.09-.29,5.4-2.99.67.01,1.33-.01,2,0,.14,0,.72.94,1.57.98,2.03.1,5.14-.64,4.43-2.98.67,0,1.33-.01,2,0,6.19.1,9.78-1.37,15.96-3.54,25.35-8.92,55.24-25.38,73.04-44.46.96-1.03,2.06-1.98,3-3,3.68,1.02,2.79-1.81,3-2,1.7-1.53,1.55-1.42,3-3,.59-.64.69,1.44,2-2,3.44-1.31,8.93-5.8,9-10,.97-1.04,2.14-2.02,3-3,2.01.09,3.02-.98,3-3,.08-.08.41-1.28,1-2,2.59.12,3.28-1.66,3-4,.36-.3.65-.69,1-1,2.93-2.54,2.94-1.01,5-6,.12-.29-.12-.71,0-1,2.64.41,3.95-3.76,4-6,1.34-1.86,1.92-3.21,3-5,2.15.11,2.68-1.39,3.64-2.86,7.51-11.42,18.82-35.35,20.36-48.14.08-.65-.03-1.34,0-2,4.39.32,1.99-4.1,2-5,0-.67,0-1.33,0-2,2.34.71,3.09-2.4,2.98-4.43-.04-.85-.98-1.43-.98-1.57-.02-.67.03-1.34,0-2l2.02-.66c1.64-3.46,0-5.03-.02-6.34-.01-1,.02-2,0-3,2.23.9,2.81-2.72,2.93-4.67.16-2.63-.92-3.96-.93-4.33-.04-1.66.02-3.33,0-5h2Z"/>
  <path class="st16" d="M737,566c.12,1.64-.03,3.35,0,5,0,.13-1.04.97-1.06,2.41-.02,2.01,1.28,4.34,1.13,6.53l1.92.06c-.02,1,.01,2,0,3-.02,1.31-1.67,2.88-.02,6.34l2.02.66c-.03.66.03,1.34,0,2-.28,5.67,1.14,10.39,3.33,16.22.59,1.58.07,3.3,2.67,2.78.06.65-.09,1.36,0,2,1.94,13.29,11.02,29.44,18.02,41.53.78,1.35.84,2.94,2.98,2.47.13.3-.16.89,0,1-.09,1.99.97,3.08,3,3,.44.86,1.49,3.31,2,4-3.11,2.06,1.16,2.44,2,3,.33.22.64.7,1,1-.16,1.91.89,3.98,2.14,5.41,1.34,1.53,2.63,1.38,2.86,1.59.34.32.66.67,1,1-.05,3.2,2.66,6.51,5.04,8.48.61.51,1.71.33,1.96.52.31.25.62.67,1,1l.02,2.99c.62.21,1.54-.15,1.98.01,3.29,5.01,4.98,4.7,7,7,1.25,1.43.9.97,2,2,.14.13,1.88,1.88,2,2,1.05,1.14.36.61,2,2,.72.61,1.77,6.24,6,5,.9,1,2.04,1.89,3,3,.19.22.01,1.37.52,1.96,2.08,2.38,5.18,5.1,8.48,5.04.31.34.72.65,1,1,.22.29,0,1.54.99,2.48,1.29,1.24,3.03.98,4.01,1.52,4.95,2.68,9.21,6.28,14,9-.5,2.49,2.97,3.31,5,4,.49.17,1.38-.11,2,0-.47,2.15,1.13,2.19,2.47,2.98,10.46,6.1,29.21,14.67,40.53,16.02.65.08,1.34-.03,2,0-.32,4.39,4.1,1.99,5,2,.67,0,1.33,0,2,0-.71,2.34,2.4,3.09,4.43,2.98.85-.04,1.44-.98,1.57-.98.67,0,1.33.02,2,0l.66,2.03c1.64.15,3.32,1.04,4.93,1.03,1.47,0,2.28-1.06,2.41-1.06.67-.01,1.33,0,2,0l.06,1.92c2.54-.02,4.98,1.18,7.51,1.19,1.93,0,3.25-1.11,3.43-1.11.67-.01,1.33,0,2,0v2h-198v-199h2Z"/>
  <path class="st16" d="M997,315h188v199h-2c.12-1.98-.03-4.01,0-6,0-.13.96-.78.96-2.31s-1.24-3.75-1.05-5.62l-1.92-.06c0-1.33-.03-2.67,0-4,.02-1.07,1.45-2.32.02-5.34l-2.02-.66c.05-.99-.09-2.02,0-3,.11-1.24,2.95-3.48-2-4,.02-1-.03-2,0-3,.03-1.11,2.35-5.28-2-5,0-.67,0-1.33,0-2,0-.98,1.93-4.42-2-4-.03-.66.04-1.34,0-2-.85-13.83-21.55-49.16-31.16-61.34-1.11-1.41-1.69-2.7-3.84-2.66-.14-.28.16-.89,0-1,.09-1.99-.97-3.08-3-3-.31-.35-.69-.63-1-1,.34-2.97-2.05-5.66-5-6-.32-.35-.68-.66-1-1,.4-2.29-.76-3.05-1.96-4.54-3.74-4.63-9.31-9.26-14.04-12.46-.17-.44.2-1.36-.01-1.98l-2.99-.02c-.31-.23-.58-.69-1-1-1.31-4.25-6.55-8.62-11-9-.33-.33-.67-.66-1-1-4.6-4.79-5.63-5.68-12-9-.26-.14-.74.14-1,0,.51-2.23-1.23-2.11-2.47-2.98-9.41-6.55-37.61-22.13-47.53-22.02-.66,0-1.34.02-2,0,.14-3.2-1.71-2.39-3.47-3.03-5.55-2.01-10.21-3.22-15.53-2.97-.66.03-1.33-.02-2,0,.65-3.05-3.92-3.13-6.4-2.98-.79.05-1.43.97-1.6.98-.67.02-1.34-.03-2,0l-.13-1.9-2.74-.2-.13-1.9Z"/>
  <path class="st12" d="M766,427c-13.07,30.63-25.42,53.94-28,88.55-.23,3.08.47,2.57-3,2.45v-1c3.84-31.28,13.41-59.37,28.19-87.36.75-1.41.39-3.17,2.81-2.64Z"/>
  <path class="st7" d="M947,315c-1.13,2.38-6.32,2.67-8.62,2.88-5.62.51-11.72.82-17.38,1.12l.06-1.92,11.36-1.15,1.58-.93h13Z"/>
  <path class="st7" d="M949,765h-16v-2c4.91-.06,12.37-1.26,16,2Z"/>
  <path class="st7" d="M997,315l.13,1.9,2.74.2.13,1.9c-3.45.13-7.95-.24-11-2l6-2h2Z"/>
  <path class="st7" d="M987,315v2c-4.56.33-11.26.78-15-2h15Z"/>
  <path class="st7" d="M986,763v2h-13c2.87-3.1,8.93-2.07,13-2Z"/>
  <path class="st7" d="M1185,566h-2c-.04-3.06-.73-7,2-9v9Z"/>
  <path class="st7" d="M1185,514v9l-2-2c.26-2.19-.14-4.73,0-7h2Z"/>
  <polygon class="st4" points="1185 526 1185 533 1183 533.01 1182.98 526.62 1183 525.99 1185 526"/>
  <polygon class="st12" points="735 523 737 522.99 737.02 528.38 737 529.01 735 529 735 523"/>
  <path class="st16" d="M995,315l-6,2c-.66.03-1.34-.05-2,0v-2h8Z"/>
  <path class="st7" d="M737,566h-2v-7c.82,1.37,1.9,5.59,2,7Z"/>
  <path class="st4" d="M1185,523v1h-2.99c-.66-1.5.96-2.68.99-3l2,2Z"/>
  <path class="st9" d="M798.59,673.41c-110.1-133.64-22.02-331.72,149.91-342.42,159.3-9.91,271.85,159.98,199.02,303.02-68.68,134.89-252.11,156.92-348.93,39.39ZM911,380c-.32.26-.62.68-1,1-2.23,1.89-6.69,2.89-7,7-.31.24-.61.67-1,1-10.66,8.93-17.63,31.3-17,45,.03.66-.03,1.34,0,2-1.7,2.64-1.65,7.52,0,10-.03.66.03,1.34,0,2-.44,9.27,10.29,48.49,18,52.57,2.2,1.16,10.53-4.81,11.9-7.28-5.01-11.75-10.71-23.15-14.16-35.53-7.06-25.28-6.19-42.48,8.27-64.77,2.73-4.2,4.32-5.37,8-8s7.79-5.49,11.69-7.81c33.83-20.09,82.88-11.21,116.83,4.83l2.44-3.98c-15.23-6.95-31.09-13.03-47.73-15.78-32.9-5.42-62.82-3.6-89.24,17.74ZM996,408c-.35-.49,1.01-2.25-1.43-2.01-1.84.18-4.23.91-3.57,3.01-.33.12-.92-.15-1.71.28-4.8,2.67-19.12,28.51-22.29,34.72-.21.4,0,1.75-.57,2.89-2.5,4.99-8.71,13.43-9.44,18.62-.31,2.21.91,1.52,2.48,1.47,1.23-1.56,1.99-2.63,3.53-3.98.14-.12,1.12.24,1.73-.24,3.14-2.5,7.25-12.54,10.88-14.64,2.28-1.32,6.84-1.83,8.46.56,6.13,9.09-1.69,41.47-5.07,52.32-1.99,0-4.01-.09-6,0,.12-3.42-4.39-3.76-7-4-.99-.09-2.01.06-3,0v-2c-.99-.08-2.01.06-3,0-4.86-.31-10.08.06-15,0-4.48-.05-6.66-.91-12.23.27-14.69,3.1-25.19,10.27-34.77,20.73-.28.3-2.87.25-3,2-.26.12-.59.73-1,1-14.39,9.41-19.89,36.92-19,53-13.32-2.02-26.93-3.94-39.52-8.98-15.11-6.05-15.05-11.02.26-16.79,10.35-3.9,21.55-4.84,32.26-7.24.27-1.36-.35-2.41-1.67-2.83-2.46-.78-13.5-.37-16.83-.16-14.81.92-49.62,5.87-62.76,11.24-14.26,5.82-.45,12.35,7.3,15.22,20.71,7.66,47.42,7.12,67.44,14.56,1.74.65,2.83,1.11,3.53,2.98-.67.34-1.34.66-2,1-1.87.96-3.96.66-4,4-.46.13-1.22-.25-1.72.29l-11.28,11.71c-2.87-.26-4.14,1.42-5,4-2.52-.35-2.67,2.7-4,4-.56.55-1.49,1.51-2,2-.97.94-.85.72-2,2-1.04,1.16-3.01,2.69-5,5-5.74,6.66-14.12,14.75-17,23l-1.85.12c-1.42,1.64-.13,4.49-.15,4.88-.06.98.13,2.07,0,3-.02.17-1.59.75-.9,1.86.47.47,1.69-.02,1.9.14.09.07-.24,1.18.36,1.67,2.55,2.06,4.46,2.17,7.64,2.33l.5,2.01h2.49s0-2.01,0-2.01c1.65.09,3.34-.03,5,0,1.05.02,2.32,1.45,5.34.02l.66-2.02c1.13-.1,2.94-.16,4,0,.14.02.9,1.47,2,1,.12-.64-.13-1.45,0-2,.06-.24.8-.62,1-1,.65.07,1.41-.12,2,0s1.38-.11,2,0c.12.02.82,1.42,1.99.99v-1.99c1.23-.98,2.72-.71,4.01-1,.56-.13,1.35.14,1.99,0,.13-.65-.1-1.39,0-1.99,2.18-.25,4.26-2.13,6-2,.18.01,1.03,1.36,1.99,1v-2c1.21-.98,2.76-.69,4.01-1,1.62-.41,3.26-.78,4.89-1.14l.11-1.86v-1c2.26.21,1.87-.96,2-1,1.55-.45,3.4-1.1,5-1,.12,0,.96,1.47,1.98,1,.21-.6-.17-1.69.02-2,.77-1.24,5.63-1.52,7-2,2.45-.85,2.05-1.73,2.73-1.95,1.73-.55,4.29-.11,6.27-1.05v1c-.06.65.09,1.36,0,2-3.88-.38-2.03,2.86-2,4,.03.98-.13,2.1,0,3-3.98,1.33-2.04,1.24-2,4,.02,1.32.09,2.69,0,4-.72.1-1.67-.45-2.08.59-1.71,2.71.06,3.88.08,4.41.02.67,0,1.33,0,2s.02,1.33,0,2l-2.02.66c-1.64,3.46-.01,4.97.02,6.34.02.66-.04,1.34,0,2,.06.99-.07,2.01,0,3l-1.92.06c.19,1.89-1.03,4-1.05,5.63s.96,2.19.97,2.31c.01.67,0,1.33,0,2,0,1.33.06,2.68,0,4l-2.03.66c-.14,1.62-1.02,3.3-1.02,4.89,0,2.34,1.05,2.31,1.05,2.45.06,2.33-.06,4.67,0,7h-2s-.09,9.58-.09,9.58l.33,1.23,1.75.19c.46,4.61,1.65,3.04,4,5,.2.17-.49,2.79,3.57,2.95,4.91.2,3.79-2.29,4.43-2.95s1.34-1.33,2-2c.33-.34.68-.65,1-1,1.1-1.22,5.62-6.71,6-7,1.14-.87.97,1.66,2-2,.37-1.32.65-2.67,1-4h2c.1-.65-.09-1.38,0-2s-.07-1.35,0-2l1.97-.03c.23-.62-.12-1.49.03-1.97,2.26-7.3,6.76-14.05,10-21,3,.1,4.1-4.53,5-7,.17-.47-.12-1.39,0-2h2c.1-.65-.09-1.38,0-2s-.07-1.35,0-2l1.97-.04c.24-.63-.11-1.46.03-1.96.91-3.29,2.54-5.8,3-9,.05-.31,0-.68,0-1,1.09-.19,1.54-1.67,2-2,.39-.28,1.8-.01,2.59-.96l.25-1.24c-.04-.38-.81-.59-.84-.79-.12-.96.08-2.02,0-3h4c1.78-.37,2.26,1.55,3,2,.36,3.29,2.41,4.01,5,5,1.12.43,2.78.78,4,1-.73,4.09,10.55,4.27,10,0,.63-.1,1.35.06,2,0l2.01,1.5-1.75.72-.26,1.78c-.32.04-.67-.01-1,0-1.49.05-2.33-.58-2.02,1.51.44,2.3,7.07,9.91,9.1,11.06,1.37.77,1.8-.57,1.92-.57.66-.02,1.34-.02,2,0l.5,2.01h2.49s0-2.01,0-2.01c.67-.01,1.33,0,2,0,1.51.01,5.6,1.69,5-2,1.18-.23,2.94.28,4,0v4c-.64.09-1.36-.09-2,0-.07.01-.45-.91-1.27-.77-2.75.46-7.3,3.84-6.79,7.21.02,1.17,1.66.31,2.05.56,1,.64,3.87,3.06,5,4,.13.11-.56,1.38.68,2.01.6.3,4.62,1.76,5.13,1.85,1.54.25,2.08-.85,2.19-.85,2.99,0,6.01-.06,9,0,1.05.02,2.32,1.45,5.34.02l.66-2.02c.66-.04,1.34.06,2,0,.08,0,.51.87,1.31.78,1.29-.14,9.6-5.23,10.69-6.33s.91-2.35,1.01-2.45c1.56-1.58,3.33-3.65,5-5,1.32-1.06,1.34.95,3-3,.37-.88.54-1.94,1-3,2.36.61,4.59-5.03,4.77-6.69.09-.8-.77-1.23-.77-1.31.03-1-.02-2,0-3l1.84-.13c.92-2.76,2.12-8.23-1.84-7.87-.06-1.6.23-3.54,0-5-.47-2.94-2.03-4.25-4.6-2.07-1.13.96-1.18,2.86-1.4,3.07-.25.24-2.74-.61-2,2-.3.2-1.08,1.31-2,2l-.28-1.75-1.69-.27c-.04-.65-.1-1.33-.03-1.98,2.62-1.51,5.35-4.1,6.55-7.11.6-1.51-.56-1.79-.55-1.89.08-.61.02-1.36,0-2,0-.12,1.1-.66.86-2.2-.18-1.13-3.3-7.95-4.07-9.13-1.17-1.78-2.68-1.55-2.78-1.68-.16-.19.25-1.33-.11-1.87l-4.48,1.9c-.92,1.22.6,1.87.59,1.97-.09,2.88-1.4,1.97-2,3-2.85.07-4.33,3.54-5,6h-1.98c-.24.91.23,2.3-.02,3-.17.5-6.02,6.1-7,7-1.9-.15-4,.89-5.4,2.14-1.53,1.36-1.4,2.65-1.6,2.86-3.11,3.36-5.04,3.33-9,5-2.73,1.16-8.02,1.44-8,5-.65.08-1.34-.05-2,0s-4.5-1.99-4,2c-.56.16-1.42-.15-2,0l-2.8-1.19-.2-2.81c.67,0,1.33-.01,2,0,1.11.02,4.39,1.89,4-2,.93.04,2.14.12,3,0,1.38-.2,3.99-.75,4.99-1.55s.87-2.33,1.01-2.45c1.58-1.35,8.61-5.55,10-6,.54-.18,1.76.24,2,0,.25-.25-.23-1.63,0-2,1.2-1.92,10.95-12.42,13-14,1.01-.77.87,1.57,2-2,.33-1.04.62-1.98,1-3l2.57-.97c1.02-1.3-.56-1.84-.57-2.03-.06-.65,0-1.34,0-2,4.15.38,2.17-5.09,1.92-7.94l-1.92-.06c-.41-2.21-1.79-4.04-2-5s-.07-2.91,0-4l4.88-1.14.12-1.86c1.97-.13,4.02-.02,6,0,1,0,2-.02,3,0,.13,0,.97,1.05,2.41,1.06,2.02.01,4.33-1.28,6.53-1.13l.06-1.92c1.33-.05,2.67.02,4,0,.67,0,1.33-.01,2,0,.13,0,.75.98,2.31.97s3.74-1.24,5.63-1.05l.06-1.92c.33.02.67-.02,1,0,.66.03,1.34-.03,2,0,1.33.07,2.67-.01,4,0,.12,0,.62.87,1.45.87,1.67,0,3.64-1.07,5.48-.95l.07-1.91c1.32.08,2.68-.08,4,0,.66.04,1.34-.01,2,0,.13,0,.75.98,2.31.97s3.74-1.24,5.63-1.05l.06-1.92c1.33.08,2.67-.07,4,0,.99.06,2-.03,3,0,.15,0,.73.95,1.58.98,2.05.08,5.12-.61,4.42-2.98.32.02.69.04,1,0,3.77-.46,3.13-1.62,4-2,2.33-1.01,4.69-1.91,7-3,.3-.14,1.16.26,1.75-.21l1.24-4.78h-1.99s-1,0-1,0c.12-1.48-.96-1.84-1-2-.16-.6-.71-1.34-1-2-.16-.37.27-1.32-.08-1.91-.62-.31-1.3-.02-1.92-.09-1.33-.14-3.72-.19-5,0v-2.99c-1.14-.41-1.87.97-2,.99-.93.15-2.08-.16-3,0,.38-3.87-2.85-2.03-4-2-1,.03-2-.04-3,0l-.12-1.85c-1.88-1.37-4.09-.16-4.88-.15-.66,0-1.34-.03-2,0s-1.33-.01-2,0l-.06-1.91c-2.14-.99-4.65-.09-5.94-.09s-2.68-.07-4,0c-.33.02-.67-.03-1,0l-.66-2.02c-3.02-1.43-4.29,0-5.34.02-1.33.03-2.67-.06-4,0l-.07-1.91c-1.85.12-3.81-.94-5.49-.96-.84,0-1.33.87-1.45.88-.66,0-1.34-.03-2,0-.99.05-2.01-.09-3,0l-.66-2.02c-3.02-1.43-4.29,0-5.34.02-1.65.03-3.35.07-5,0l-.12-1.86-5.77-1.29-.12-1.86c3.7-2.63,9.79-11.03,13.34-14.66,7.08-7.23,15.24-14.3,20.66-22.34h2s0-2,0-2c1.75-.92,13.21-11.16,13.7-12.28.67-1.5.04-2.95.3-3.72l1.3-.05c2.63-2.37,2.62-2.47,2.7-5.95,0-.33.02-.67,0-1-.05-.66.1-1.39,0-2h1l2,.99c.47-1.38-.98-1.88-1-1.99-.26-1.8.08-4.07,0-6-.03-.66.06-1.34,0-2-.66-.06-1.34.04-2,0s-1.34.03-2,0c.56-3.02-1.53-1.93-3.46-2s-4.08-.08-6.09,0-4.01-1.03-3.46,2c-1,.02-2-.04-3,0-.08,0-.51-.85-1.31-.77-1.06.1-8.9,2.81-7.69,4.77-.65.08-1.36-.09-2,0-.08.01-.5-.87-1.3-.78-1.12.12-8.89,2.81-7.7,4.78h-2s0,2,0,2c-1.29-.13-2.76.19-4,0-.13-.02-.89-1.4-1.99-.99v1.99s0,1,0,1c-1.07-.16-2.86-.09-4,0-1.97.15-5.95.74-5,3-.93.26-1.93.7-3,1-2.32.66-6.79-.04-6,3-.84.18-1.91.73-3,1-1.87.46-4.02.48-5.89,1.14l-.11,1.86v1c-.8-.04-8.48,3.28-10,4-.27.13-.74-.13-1,0l-2-1c-.01-.33,0-.67,0-1s-.03-.67,0-1c4.34.28,2.03-3.89,2-5-.04-1.32.12-2.69,0-4l1.91-.06c.99-2.14.09-4.66.09-5.94,0-.66.04-1.34,0-2s.08-1.35,0-2l2.02-.66c1.43-3.02,0-4.29-.02-5.34-.03-1.66-.05-3.34,0-5l2.02-.66c1.43-3.02,0-4.29-.02-5.34-.03-1.65-.07-3.35,0-5l2.03-.66c.14-1.63,1.06-3.33,1.03-4.93-.02-1.44-1.05-2.28-1.06-2.42-.05-2,.02-4,0-6s.04-4,0-6c3.03.56,1.92-1.53,2-3.46.16-4.03-.16-8.09.08-12.12l-.33-1.23c-.54-.44-1.3-.07-1.75-.19-.31-5.02-2.13-2.78-3-4ZM1114.83,432.84c-.04-8.1,2.63-15.98-5.46-20.78-1.63-.36-2.6,2.48-4,2.76-2.23.45-3.99-2.78-6.89-.91-3.64,2.34-1.79,5.38-2.67,8.4-.7,2.41-4.74,2.75-1.86,7.24,3.65,5.68,15.34,7.18,20.88,3.29Z"/>
  <path class="st12" d="M893,325c.52,2.6-1.2,2.08-2.78,2.67-24.72,9.17-38.8,18.67-61.22,30.33-.15-2.28,1.51-2.59,2.88-3.62,16.79-12.59,41-23.56,61.12-29.38Z"/>
  <path class="st7" d="M1108,709c-17.8,19.07-47.69,35.54-73.04,44.46-6.18,2.17-9.77,3.65-15.96,3.54l27.5-10c16.14-7.18,31.55-15.78,45.81-26.19,5.29-3.86,9.85-8.86,15.68-11.82Z"/>
  <path class="st7" d="M1138,403c2.15-.04,2.73,1.25,3.84,2.66,9.61,12.18,30.31,47.51,31.16,61.34l-8.31-19.19c-5.92-16.04-19.51-30.15-26.69-44.81Z"/>
  <path class="st7" d="M1033,327c9.92-.11,38.12,15.48,47.53,22.02,1.24.87,2.98.74,2.47,2.98-6.03-3.22-12.26-6.58-18.13-10.37l-31.87-14.63Z"/>
  <path class="st7" d="M1151,658c4.89-8.06,8.94-16.8,13.36-25.14l10.64-25.86c-1.53,12.8-12.84,36.72-20.36,48.14-.97,1.47-1.49,2.96-3.64,2.86Z"/>
  <path class="st7" d="M768,657c-2.14.47-2.2-1.12-2.98-2.47-7-12.09-16.08-28.24-18.02-41.53l21,44Z"/>
  <path class="st7" d="M893,755c-11.32-1.36-30.07-9.93-40.53-16.02-1.35-.79-2.94-.82-2.47-2.98l43,19Z"/>
  <path class="st7" d="M1109,372l2.99.02c.21.62-.15,1.54.01,1.98,4.72,3.2,10.3,7.84,14.04,12.46,1.2,1.49,2.37,2.24,1.96,4.54-4.44-4.76-13.83-11.24-16-17-1.04-.71-1.76-1.09-3-2Z"/>
  <path class="st7" d="M1031,327c-2.26-.09-6.71-1.59-9.22-2.28-3.01-.83-7.42-1.82-9.78-3.72,5.32-.25,9.97.96,15.53,2.97,1.77.64,3.61-.17,3.47,3.03Z"/>
  <path class="st7" d="M747,611c-2.6.52-2.08-1.2-2.67-2.78-2.18-5.83-3.61-10.55-3.33-16.22l6,19Z"/>
  <path class="st12" d="M778,409c-2.07,4.96-5.93,10.08-9.02,14.53-.86,1.24-.74,2.98-2.98,2.47,1.91-4.92,5.2-9.81,8.38-14.12,1.03-1.39,1.35-3.03,3.62-2.88Z"/>
  <path class="st7" d="M1096,361c-3.85-1.93-10.44-4.75-12-9,6.37,3.32,7.4,4.21,12,9Z"/>
  <path class="st7" d="M1108,371c-4.58-3.32-6.81-4.84-11-9,4.45.38,9.69,4.75,11,9Z"/>
  <path class="st7" d="M1119,699c-1.31,3.44-1.41,1.36-2,2-1.45,1.58-1.3,1.47-3,3-.21.19.68,3.02-3,2,1.55-1.69,2.64-1.66,3-2,.8-.75,1.65-1.76,3-3,.64-.59-1.44-.7,2-2,1.89-4.97,5.71-6.48,9-10-.07,4.2-5.56,8.69-9,10Z"/>
  <path class="st7" d="M931,763c-.18,0-1.5,1.12-3.43,1.11-2.53-.01-4.97-1.21-7.51-1.19l-.06-1.92c3.49-.05,7.92.18,11,2Z"/>
  <path class="st12" d="M797,386c-.24.27-.39,1.84-1.43,3.03-1.67,1.9-4.08,4.63-6.57,4.97,1.47-3.37,4.16-7,8-8Z"/>
  <path class="st7" d="M789,686c-.25-.19-1.34-.02-1.96-.52-2.39-1.97-5.1-5.27-5.04-8.48,2.64,2.58,5.89,5.46,7,9Z"/>
  <path class="st7" d="M1183,571c0,.38,1.1,1.71.93,4.33-.12,1.95-.7,5.56-2.93,4.67-.06-3.04-.27-6.66,2-9Z"/>
  <path class="st7" d="M823,718c-3.3.06-6.4-2.66-8.48-5.04-.51-.59-.33-1.74-.52-1.96,3.48,1.18,6.51,4.27,9,7Z"/>
  <path class="st7" d="M739,580l-1.92-.06c.15-2.19-1.16-4.52-1.13-6.53.01-1.44,1.06-2.28,1.06-2.41,2.27,2.34,2.06,5.96,2,9Z"/>
  <path class="st7" d="M1000,761l-.06,1.92c-2.19-.15-4.52,1.15-6.53,1.13-1.44-.01-2.28-1.05-2.41-1.06,2.32-2.24,5.98-2.11,9-2Z"/>
  <path class="st7" d="M1002,319c.17,0,.81-.93,1.6-.98,2.47-.16,7.05-.07,6.4,2.98-2.73.08-5.97.04-8-2Z"/>
  <path class="st7" d="M1181,500l1.92.06c-.2,1.88,1.05,4.02,1.05,5.62s-.96,2.19-.96,2.31c-2.96-1.08-2.01-5.26-2-8Z"/>
  <path class="st7" d="M792,690c5.63,2.12,4.97,5.24,7,7,1.5,1.3.97.91,2,2,.12.13,1.87,1.88,2,2,1.09,1.03.72.53,2,2,.37.42,4.01,2.79,6,5-4.23,1.24-5.28-4.39-6-5-1.64-1.39-.95-.86-2-2-.12-.12-1.86-1.87-2-2-1.1-1.03-.75-.57-2-2-2.02-2.3-3.71-1.99-7-7-.44-.17-1.36.2-1.98-.01l-.02-2.99c2.07,1.76,1.26,1.87,2,3Z"/>
  <path class="st7" d="M918,761c-.13,0-.95,1.05-2.41,1.06-1.61,0-3.29-.88-4.93-1.03l-.66-2.03c2.73-.07,5.96-.04,8,2Z"/>
  <path class="st12" d="M828,358c-.21,3.89-4.46,4.54-7,6,.37-3.3,4.39-4.7,7-6Z"/>
  <path class="st7" d="M1009,759c.69,2.71-3.14,3.13-5.4,2.99-.82-.05-1.44-.99-1.6-.99,1.74-1.81,4.61-2.04,7-2Z"/>
  <path class="st12" d="M812,371c.05,3.91-4.46,4.69-6,6-.15-3.87,4.66-4.79,6-6Z"/>
  <path class="st7" d="M1181,583c.02,1.31,1.67,2.88.02,6.34l-2.02.66c-.1-2.44-.31-5.44,2-7Z"/>
  <path class="st7" d="M741,590l-2.02-.66c-1.64-3.46,0-5.03.02-6.34,2.31,1.56,2.11,4.56,2,7Z"/>
  <path class="st7" d="M781,676c-.23-.22-1.52-.06-2.86-1.59-1.25-1.42-2.29-3.49-2.14-5.41,2.3,1.92,4.42,3.78,5,7Z"/>
  <path class="st7" d="M1179,490l2.02.66c1.43,3.02,0,4.27-.02,5.34h-2c.05-1.98-.11-4.01,0-6Z"/>
  <path class="st12" d="M819,365c-.34,2.95-3.03,5.34-6,5,2.56-2.12,2.11-2.84,6-5Z"/>
  <path class="st7" d="M1134,398c-1.37-1.64-3.92-4.83-5-6,2.95.34,5.34,3.03,5,6Z"/>
  <path class="st12" d="M789,395c-1.31,2.99-4.79,8.02-8,9,1.19-1.8,1.81-2.17,2.66-3.33,1.41-1.92,1.35-5.59,5.34-5.67Z"/>
  <path class="st7" d="M1144,670c-2.06,4.99-2.07,3.46-5,6,.65-2.46,2.17-5.93,5-6Z"/>
  <path class="st7" d="M1179,592c0,.14.94.72.98,1.57.1,2.03-.64,5.14-2.98,4.43,0-2.27-.1-4.64,2-6Z"/>
  <path class="st7" d="M908,759c-.13,0-.72.94-1.57.98-2.03.1-5.14-.64-4.43-2.98,2.27,0,4.64-.1,6,2Z"/>
  <path class="st7" d="M1017,757c.71,2.34-2.4,3.09-4.43,2.98-.85-.04-1.43-.98-1.57-.98,1.42-1.54,3.96-1.98,6-2Z"/>
  <path class="st7" d="M1175,475c4.35-.28,2.03,3.89,2,5-2.42-.75-1.98-2.96-2-5Z"/>
  <path class="st7" d="M1148,663c-.05,2.24-1.36,6.41-4,6,1.74-4.24,2.11-3.37,4-6Z"/>
  <path class="st7" d="M1177,600c0,.9,2.39,5.32-2,5,.09-1.96.17-3.86,2-5Z"/>
  <path class="st7" d="M1179,487h-2c-.01-1.33-.03-2.67,0-4,4.95.52,2.11,2.76,2,4Z"/>
  <path class="st7" d="M824,719c2.08.57,5.12,1.51,5,4-.99-.53-2.72-.28-4.01-1.52-.98-.95-.76-2.2-.99-2.48Z"/>
  <path class="st7" d="M848,736c-2.03-.69-5.5-1.51-5-4,1.72.98,5.16.41,5,4Z"/>
  <path class="st7" d="M900,757c-.9,0-5.32,2.39-5-2,1.96.09,3.86.17,5,2Z"/>
  <path class="st12" d="M905,322v2s-4.33-.19-4.33-.19l-.67-.81c1.88-.46,3.39-.63,5-1Z"/>
  <path class="st7" d="M916,319c-1.24,1.42-3.25,1.68-5,2-.6-3.68,3.47-2.02,5-2Z"/>
  <path class="st7" d="M1173,469c3.93-.42,2,3.02,2,4-2.08-.62-1.92-2.16-2-4Z"/>
  <path class="st7" d="M1135,681c1.01-1.23.36-1.84,3-4,.28,2.34-.41,4.12-3,4Z"/>
  <path class="st7" d="M771,661c-2.03.08-3.09-1.01-3-3,2.07,1.44,1.2-.56,3,3Z"/>
  <path class="st7" d="M775,668c-.84-.56-5.11-.94-2-3,.52.7,2.35,1.07,2,3Z"/>
  <path class="st12" d="M781,405c.1,1.99-.97,3.08-3,3,1.41-3.88,1.43-1.88,3-3Z"/>
  <path class="st7" d="M1138,402c-3.12-2.07-1.61-1.46-3-3,2.03-.08,3.09,1.01,3,3Z"/>
  <path class="st7" d="M1134,683c.02,2.02-.99,3.09-3,3,1.64-1.87,1.45-1.56,3-3Z"/>
  <path class="st0" d="M988,485l1,3c-.12.57.07,1.35,0,2-.03.33,0,.67,0,1h-2s0,5.01,0,5.01c1.66.03,3.34-.04,5.01,0-.41,2.86-1.62,1.74-2.69,3.78-3.71,7.05,1.29,10.69.69,12.68-5.91,2.21-4.58,4.13-6,8.54-2.09.42-3.08-.18-4-2,.22-.67-.09-2.07,0-3,.95-.42.74-1.32,1-2,2.25-5.92-1.57-6.73,0-13,1.24-4.97,4.01-10.99,5-16h2Z"/>
  <path class="st0" d="M1069,465l.04,1.94,4.53.98c-.18,2.08,1.19,4.61,1.43,6.08.1.61-.05,1.34,0,2-.37.3-.67.66-1,1-1.69,1.73-2.26,3.8-3,6-.26.77.37,2.22-.3,3.72-.49,1.12-11.95,11.36-13.7,12.28h-2s0,2,0,2c-5.42,8.05-13.58,15.11-20.66,22.34-3.56,3.63-9.64,12.03-13.34,14.66-.9.64-1.94.8-3,1-.59.11-1.35-.11-2,0-.22,2.56-.48,3.64,1.98,4.65l.02,1.35h-2l-1.49-1c-1.27.35-1.27,2.77-1.51,3-.21.2-1.41.01-2,.5-2.57,2.12.36,19.41-.98,23.9l2.09,4.56c.98.5,1.72-.95,1.9-.96,1.63-.12,3.36-.02,5,0,.14,0,.74.94,1.58.98,2.04.09,5.12-.62,4.42-2.98.98-.04,2.02-.06,3,0,.86.06,3.85,2.02,6,1v-3c1.31-.09,2.67.03,4,0,1.07-.03,2.88,1.67,6.34.02l.66-2.02c.66.02,1.34-.04,2,0,1.71.11,5.57,3.37,6-2,.99-.04,2.01-.03,3,0,.12,0,.81,1.31,2.24.89,3.09-.91,4.53-5.37,3.81-8.3-.29-1.19-1.78-.39-2.05-.59-.55-.41-.83-1.67-1.75-1.96-.82-.26-1.76.11-2.25-.04l-1.65-2.96c-1.39-.43-2.22.96-2.35.96-.65.04-1.36.05-2,0l-1.65-2.96c-1.39-.43-2.22.96-2.35.96-.65.04-1.36.05-2,0l-1.65-2.96c-1.39-.43-2.2.95-2.35.96-.65.05-1.34,0-2,0-.47-5.23-3.49-2.1-5-2-.66.04-1.34,0-2,0,.37-4.42-4.26-1.97-5-2-.67-.02-1.33.02-2,0v-4c.89.14,2.02-.04,3,0,1.65.07,3.35.03,5,0v2.99c1.49.66,2.65-.94,3-.99.95-.13,2.02.09,3,0s2.01.05,3,0c-.28,4.35,3.89,2.03,5,2,1.33-.04,2.67.06,4,0s2.67.03,4,0v2.99c1.5.66,2.63-.94,3-.99.92-.14,2.02.08,3,0,.33-.03.67.02,1,0v1.99c1.67-1.28,3.06.93,4.49.95.91.01,1.41-.94,1.51-.94,1.33,0,2.67.03,4,0,.67-.01,1.34.03,2,0-.25,4.32,3.79,2.06,5,2,.66-.03,1.34.03,2,0,1-.04,2,.03,3,0v2.99c1.18.43,1.88-.97,2-.99.63-.11,1.38.11,2,0,.92-.16,2.07.15,3,0v2.99c1.1.41,1.87-.98,2-.99,1.28-.19,3.67-.14,5,0,0,.67,0,1.33,0,2s-.04,1.33,0,2h3c.04.16,1.12.52,1,2-.04.49-2.02,1.67,0,3-.17.5.11,1.38,0,2-2.31,1.09-4.67,1.99-7,3l-.6-.85c-1.85.27-3.98.56-3.4,2.85-.31.04-.68.02-1,0-.66-.04-1.34,0-2,0-.09,0,.26-.97-1.51-1-1.66-.03-3.21.8-4.83.98l-.66,2.03c-1.33-.07-2.67.08-4,0s-2.67.04-4,0c-.09,0,.27-.92-1.52-1.01-1.99-.1-5.21.69-4.48,3.01-1.32-.08-2.68.08-4,0-.99-.06-2,.03-3,0-.13,0-.11-1.06-2.45-1.05-1.6,0-3.27.88-4.89,1.02l-.66,2.03c-.66-.03-1.34.03-2,0l-.51-1-1.49,1c-.99-.06-2.02.09-3,0-.09,0,.22-.83-1.51-1.02-2.63-.29-4.54.13-4.49,3.02-1.33.02-2.67-.05-4,0s-2.74-.16-4,0c-1.65-2.28-5.07-.25-7.34-.03l-.66,2.03c-1.98-.02-4.03-.13-6,0-.96.06-2.17-.18-3,0l-.51-.99h-1.49s0,1.99,0,1.99v1l-2.49,2c-1.16-.85-2.32-1.8-3.63-2.42-7.1-3.33-11.19-2.7-19.39-2.6-1.68.02-4.46-.65-5.49,1.01-.99-.02-2.01-.04-3,0-4.99-2.54-14.9-2.7-18.06,2.46-.89,1.45-.61,2.95-1.04,3.75-.59,1.09-.95.59-1.91,2.79l-2.81-2.68,2.71-5.62c-.71-2.8-5.48-2.87-4.89-5.7,5.66.48,8.58-4.29,11.61-7.93.63-.75,2.04-.93,2.27-1.24.44-.6-.95-2.83-.87-4.28.05-.98,1.46-4.23,1.99-5.56.11-.28.86-.6,1-1,.16-.43.92-.77,1-1l3,1c-1.32,4.11-1.24,7.73,4.4,5.89,1.68-.55,1.4-2.73,1.6-2.89,4.46-3.68,4.76-3.35,9-8,.32-.35.69-.64,1-1,4.37.77,6.38-4.26,8.32-5.68s5.98-2.04,7.75-4.75c1.27-1.95,2.73-9.02-2.07-7.57-.16-.58.19-1.55,0-2,2.43-5.81,5.93,4.73,9.48,4.01,1.43-.55,1.15-2.45,1.52-3.01.22-.33.7-.63,1-1,3.72.98,2.73-1.73,3-2,.35-.35,1.87-1.89,2-2,5.08-4.54,8.07-5.14,12-12,.73-.49,1.44-.24,2.85-1.6,1.96-1.9,10.41-14.71,10.92-17.12,1.74-8.21-5.48-12.7-13.02-12.09-12.05,3.71-26.27,11.05-38.76,10.82.14-.95-.09-2.03,0-3,1.52-.72,9.2-4.04,10-4,.19.01,1.05,1.35,1.99,1,.16-.62-.17-1.56,0-2,.14-.35.24-.73.63-.89.75-.34,1.76.05,2.37-.11,2.42-.63,5.35-.63,6.98-2.5l-.98-.5c.63-.15,1.75-.69,3-1,4.38-1.09,5.49,1.02,8-4,.29-.58,1.04-1.12,1-2,1.14-.09,2.93-.16,4,0,.13.02.89,1.4,1.99.99v-1.99s0-1,0-1c1.24.19,2.71-.13,4,0h2s0-2,0-2c.66.03,1.34-.04,2,0,.93.06-.09.46,2,0,3.01-.66,5.93-1.85,8.95-2.55l6.05-3.45c.33-.04.67.03,1,0,1.65-.14,3.35.12,5.01,0v-2c2.32-.03,4.67-.04,6.99,0ZM1003,554c-1.04,1.68-3.21,3.21-5,4-.54.24-1.94-.29-3.03.48s-.72,2.15-.97,2.52c-2.05,2.96-2.68,1.88-5,3s-6,1.35-5,5c-.67.33-1.33.67-2,1-1.54.76-4.19-.37-4.88,3.68-.15,1.81,2.18,2.79,3.6,3.1,2.2.48,20.3.67,21.1-.02.46-.4.07-1.67.18-1.76.21-.17,2.29.09,3.56-.91,3.03-2.38.73-15.22,1.47-19.44l-2.02-.65-.51-2.01h-1.49c-.16.6.19,1.7,0,2.01Z"/>
  <path class="st6" d="M938,577c-.1,4.34,7.1,4.34,7,0,1.86-.1,4.39.33,6,0v1c-.59,2.82,4.19,2.9,4.89,5.7l-2.71,5.62,2.81,2.68c-.31.71-.41,2.63-1,3-.76.48-2.52-1.24-2.07,2.89l-3.93.11c1.37-5.03,1.54-8.17-4.87-6.86-.59,1.14-.52,2.58-1.4,3.59-1.85,2.12-9.62,4.66-12.26,6.25-3.47,2.08-7.3,4.56-9.47,8.03.67,3.19-2.64,1.38-3.81,2.21-.55.39-.05,1.61-.19,1.79-.13.17-1.65.29-2,1-2.55-.28-7.02-.84-6,2-3.01.16-6.38,1.86-7,5-.64-.09-1.44.14-2,0-3.01-.75-3.72-.37-6.7,1.34-.51.29-.2,1.58-.3,1.66-.98.84-7.25,1.41-9,2-2.99,1-6.08,2.17-8.88,3.61-1.27.66-5.5,2.58-5.12,4.39-.13.04.26,1.21-2,1-4.48-.41-6.68,1.08-11.22,3.08-1.08.48-1.68,3.36-5.78,1.91-.11.97.17,2.1,0,3-.65.08-1.37-.1-2,0-.07.01-.5-.87-1.3-.78-1.71.2-7.29,2.4-6.7,4.78-.59-.12-1.35.07-2,0-.17-.02-.8-1.04-2.33-.98-4.33.17-12.5,4.12-16.12,4.05-7.65-.15-9.03-6.85-7.32-13.33.42-1.57,6.67-11.65,8.09-13.4,2.05-2.52,7.45-4.05,6.67-9.34,1.99-2.31,3.96-3.84,5-5h2s0-2,0-2c.51-.49,1.44-1.45,2-2,4.61.47,3.25-1.76,4-4,.86-2.58,2.13-4.26,5-4,2.22.2,4.69,1.52,6.86,2.15l.14,3.85c-3.01,6.83-15.83,17.02-5.96,23.46,6.4,4.18,25.17-2.61,32.47-5.44,5.84-2.26,11.25-5.48,16.95-8.04,5.04-5.15-8.12-14.75-7.46-20.97,4.31-.65,5.2,3.77,7.48,6.05.8.8,2.33.76,2.51.94.42.42,1.75,1.73,2,2s-.59,2.71,2,2c.12.14,1.31.14,2,1,.21.26-.59,1.88.57,2.07,5.45.82,7.15-2.56,10.73-4.26,7.65-3.63,17.01-7.33,21.8-14,.5-.7.94-.9,1.79-.9.68-2.59-1.52-2.32-2.89-2.9-3.84-1.63-6.84-.47-6-6,.74-.05,1.46-.5,2-1,1.65.13,3.34-.06,5,0Z"/>
  <path class="st6" d="M894,633c1.58-.44,3.23-.53,4.71-1.34.52-.28-.2-2.59,2.29-1.65.14,1.89-.94,3.54-.97,5.42-.01.78.98,1.43.97,1.58-.16,3.34-.69,7.48-1,11l-.7,1.2.7.8c-.07.89.22,2.46,0,3s-3.03,1.59-2.77,4.33c.04.46,1.73,4.84,2.08,5.41.3.49,1.63.17,1.69.27.7,1.08,1.26,1.93,2,3,.16.23-.34,1.53.09,1.86,3.4.83,6.28-.17,8.84-2.43l17.06-24.94,2.02.03c0,.83-.02,1.66,0,2.48,0,.32.05.69,0,1-4.3,1.32-6.02,8.47-8.03,12.27-1.47,2.78-1.31.24-1.97,5.73-.21,1.74-.77,3.53-2,5-8.41,10.04-14.25,24.1-21.44,36.07-.98,1.64-1.76,2.9-1.56,4.93-.32.35-.67.66-1,1l-9.31-.19-4.69-4.81c-.1-1.99.09-4.01,0-6h2c-.83-4.05,1.16-8.26,1-12,3.14-1.64,2.13-7.66,2-11-.01-.33.02-.67,0-1h1.99c-1.45-4.35-.14-7.66,0-12,.03-.92.14-2.17,0-3,1.61.72,3.56-2.51,3.81-3.76.58-2.83-1.53-3.33-1.81-4.24-.16-.51-.08-2.29,0-3,.02-.16.74-1.77,1-3,.64-.09,1.99.36,2.04-.61.05-.94-.85-1.69-1.04-2.39-.25-.88-.96-2.75-1-3-.1-.63.1-1.36,0-2,.41-.14,1.27.3,1.83-.14.57-1.19,1.07-2.53,1.17-3.86Z"/>
  <path class="st1" d="M1023,607l6,13c.02.64.08,1.39,0,2-2,1.65-5.73,6.47-6,9-2.79,1.61-7.11,8.22-11.08,11.42s-20.88,13.51-24.92,14.58c-1.06.28-2.82-.23-4,0-1.76.34-3.75.56-5,2-.67,0-1.33-.01-2,0-1,.02-2.01.03-3,0-.66-.02-1.34-.02-2,0-2.57-4.33-8.3-6.62-9-12,.33-.01.68.04,1,0,4.12-.49,4.97-1.23,8-2,.58-.15,1.44.16,2,0,1.45-.4,3.4.42,4-2,.66-.05,1.35.08,2,0,2.03-.25,8.75-2.7,8-5,3.96-1.67,5.89-1.64,9-5,3.4-.33,5-3.17,7-5,.98-.9,6.83-6.5,7-7,1.86-.19,1.74-2.74,2-3,2.91-2.88,2.36-1.48,5-6,.6-1.03,1.91-.12,2-3l4-2Z"/>
  <path class="st1" d="M1035,630c.23,1.46-.06,3.4,0,5,.1,2.64.05,5.35,0,8-.02,1,.03,2,0,3-2,2.1-2.85,5.38-4,8-.46,1.06-.63,2.12-1,3-2.02-.13-2.94,1.03-3,3-1.67,1.35-3.44,3.42-5,5l-13,8c-.66.06-1.34-.04-2,0-2.09.14-4.51.36-6,2-2.99-.06-6.01,0-9,0-1.79-2.34-5.35-2.11-8-3-1.13-.94-4-3.36-5-4-.72-4.95,4.15-4.05,6-7,.64-.09,1.36.09,2,0,10.96-1.57,28.96-19.23,38-26,.92-.69,1.7-1.8,2-2,2.23-1.49,1.86-1.9,2-2,.43-.32,4.87-.67,6-1Z"/>
  <path class="st0" d="M999,412c.35,5.55-.11,11.4,0,17,.04,2-.02,4,0,6h-2c1.91,3.84-3.22,7.48,0,11-.13.92.04,2.02,0,3-.07,1.65-.03,3.35,0,5h-1l-2-1c-.14.61.19,1.64,0,2-1.04,1.94-1.58,2.41-3.96,1.98-.34-2.24-.96-3.98-2.04-5.98-2.97-5.47-8.25-8.38-14.27-5.02-1.44.8-.96,2.4-1.72,3.29-3.45,4.02-8.11,8.13-9.01,13.73-1.54,1.34-2.3,2.41-3.53,3.98-1.57.05-2.8.74-2.48-1.47.74-5.19,6.94-13.63,9.44-18.62.57-1.13.36-2.48.57-2.89,2.76-.14,4.31-3.78,5.63-5.87,5.09-8.08,8.88-15.58,14.79-23.26.48-.63.33-2.09.84-2.61,1.83-1.86,8.25-.92,10.75-.26Z"/>
  <path class="st12" d="M878,565c-.4,7.79-.34,10.24-9.61,9.06-1.54-.2-2.22-1.02-2.39-1.06s-.85-.87-2.39-1.06c-2.67-.32-5.84.33-8.6.07-1.65,1.41.14,1.8,1.49,1.98,2.61.35,3.61.1,6.5,1.02.97.31,4.83,1.84,5,2.51l-.47,1.52c-.69.94-1.94.66-2.53.96-.69-1.87-1.79-2.33-3.53-2.98-20.02-7.44-46.72-6.9-67.44-14.56-7.74-2.87-21.56-9.4-7.3-15.22,13.14-5.36,47.95-10.32,62.76-11.24,3.33-.21,14.36-.61,16.83.16,1.31.41,1.93,1.46,1.67,2.83-10.72,2.4-21.91,3.34-32.26,7.24-15.31,5.77-15.37,10.74-.26,16.79,12.58,5.04,26.2,6.96,39.52,8.98-.88-16.08,4.62-43.6,19-53-1.12,5.27-6.42,9.81-9.01,14.49-6.31,11.36-6.35,19.05-6.99,31.51ZM826,561c-3.7-2.4-5.79-6.37-3.07-10.57,1.14-1.76,13.28-7.43,15.84-8.15s7.02,1.12,6.22-2.27c-3.96.36-8.61-.55-12.44.05-10.06,1.57-20.06,4.09-30.09,5.91-4.33.78-8.82.46-13.39,2.61-1.76.83-3.81,2.47-5.03,4.04-.26,1.21,2.45,3.63,3.47,4.39,3.36,2.5,14.68,5.98,19.04,6.96,4.95,1.12,13.5,1.06,17.45,2.05,7.18,1.8,15.06,4.57,22.54,5.96,2.33.43,5.05-.16,7.45.04,1.31-1.11.17-1.92-1.49-1.98-6.55-.22-20.79-5.31-26.5-9.01Z"/>
  <path class="st0" d="M898,407c-.18.43.11,1.37,0,2-.95.42-.76,1.29-1,2-8.14,23.93.32,48.38,9.57,70.93,1.35,3.29,5.37,6.56,4.3,11.36-.53,1.96-5.15,4.16-6.87,3.27-.58-.3-6.57-9.9-7.06-11-5.03-11.3-6.77-22.6-9.44-34.61-.37-1.69,0-3.51-2.5-2.95.03-.66-.03-1.34,0-2,.2-4.38.16-5.9,0-10-.03-.66.03-1.34,0-2,2.45.56,2.16-1.26,2.51-2.94,2.18-10.49,2.2-14.76,6.49-25.06l4,1Z"/>
  <path class="st12" d="M911,380c26.42-21.34,56.33-23.16,89.24-17.74,16.64,2.74,32.51,8.83,47.73,15.78l-2.44,3.98c-33.95-16.04-83.01-24.91-116.83-4.83-3.91,2.32-8.17,5.29-11.69,7.81,2.02-4.67,10.51-10.05,15.11-12.39,9-4.58,18.92-5.13,27.51-8.53,1.41-.56,2.93.99,2.37-2.08-9.68-.31-18.77,4.35-28.17,6.32l-22.83,11.67Z"/>
  <path class="st1" d="M955,595c-1.52,2.07.03,3.78,0,4-.15,1.2-.77,2.07-1,3l-1.81.18-2.2,5.3,1.01.52c-.84,2.03-1.32,4.18-2,6-3-.19-2.41,1.69-3.13,3.38-.57,1.33-4.26,9.21.13,8.62,0,.33-.04.68,0,1,.54,4.65,2.73,6.25,7,7,.32.06.67-.05,1,0v2c.66.07,1.34-.04,2,0s1.35.04,2,0c-.5,3.01,1.3,2.07,3.24,1.75,5.99-.97,12.11-3.63,17.76-5.75-.14.59.3,1.57-.03,2.26-.54,1.13-1.6-.05-1.97,2.74-.08.64.06,1.35,0,2-.86.12-2.07.04-3,0-.66-.03-1.35.07-2,0-.76-.08-3.04-1.94-5-1v3c-1.1.05-2.21-.19-3.31-.02l-.69,2.02c-.65.06-1.37-.1-2,0-.93.14-2.03-.08-3,0-3.63-1.61-8.34-2.43-12-4-.87-.37-3.27-1.56-4-2s-1.22-2.37-3-2l-.51-2.01h-1.49s0,2.01,0,2.01h-2c-.04-.43-.84-1.24-.85-2.44-.02-1.69,1.27-3.65.85-5.56-.64-.12-1.44.13-2,0-2.31-.54-4.66-2.08-7-3l-.17-1.82c-1.93.41-3.61-2.12-3.83-2.18l.69-.81c1.09-.37,2.2-.15,3.31-.19,1.24-.04,2.83-.15,4,0l.98,2.58c1.24.98,1.84-.56,2.02-.58.99-.11,2.23.33,3.21-.04,1.12-.43,1.25-1.54,1.79-1.96.34-.25,1.83.07,2.53-.96.88-1.31.29-2.79.47-4.04.1-.64-.13-1.42,0-2,2.69.58,1.97-1.39,2.69-2.76,1.86-3.56,4.25-7.37,5.31-11.24l3.93-.11c-.45-4.13,1.31-2.41,2.07-2.89Z"/>
  <path class="st4" d="M909,393c-14.46,22.28-15.32,39.48-8.27,64.77,3.46,12.38,9.15,23.78,14.16,35.53-1.36,2.47-9.7,8.44-11.9,7.28-7.72-4.08-18.44-43.3-18-52.57,2.51-.56,2.12,1.26,2.5,2.95,2.66,12.01,4.41,23.31,9.44,34.61.49,1.1,6.48,10.7,7.06,11,1.72.89,6.34-1.32,6.87-3.27,1.07-4.81-2.95-8.07-4.3-11.36-9.25-22.55-17.7-47-9.57-70.93,1.05-.25.86-1.18,1-2,.11-.63-.18-1.57,0-2,.05-.13,1.38-.8,2-2,.25-.48.07-1.42,1-3,1.58-2.69,5.21-8.3,8-9Z"/>
  <path class="st0" d="M878,565l2.93.07c-.25,1.75.5,2.61,1.07,3.93.43.98.91,1.91,1,3,.33,1.17,1.15.85,2,1,1.17.2,2.71-.08,4,0l.16,1.87c.61.53,2.46-.1,2.84.13.09.05-.39,1.76.66,2.01,3.65.97,11.12-2.58,10.35,3.98-1.41-.76-3.76,1.01-4.01,1-1.73-.01-5.59-3.24-8.28-1.83-2.52,1.25-4.01,3.34-3.75,6.21l-1.96.62c-2.86-4.89-7.76-11.6-13.58-6.02-1.36,1.3-1,2.32-1.44,3.03-.5.29-1.52.2-2.53.93-2.17,1.57-2.76,4.96-5.47,6.07-.04-1,.04-2,0-2.99h-1.48c-4.03,2.39-1.54,4.14-1.51,5.99s-3.44,9.09-6,9l-.14-3.85c-2.18-.63-4.64-1.96-6.86-2.15l11.28-11.71c.5-.54,1.26-.17,1.72-.29.71-.2,2.1.4,2.84-.14l1.16-3.86c.66-.34,1.33-.66,2-1,.59-.3,1.83-.02,2.53-.96l.47-1.52c-.17-.68-4.03-2.21-5-2.51v-2s3,0,3,0c.17.03.85.86,2.39,1.06,9.27,1.19,9.21-1.26,9.61-9.06Z"/>
  <path class="st1" d="M1114.83,432.84c-5.54,3.89-17.23,2.39-20.88-3.29-2.89-4.49,1.15-4.84,1.86-7.24.88-3.02-.97-6.05,2.67-8.4,2.9-1.87,4.67,1.36,6.89.91,1.4-.28,2.37-3.12,4-2.76,8.09,4.8,5.42,12.68,5.46,20.78Z"/>
  <path class="st14" d="M937,497c.02,3.07-1.37,2.58-3.54,3.01-12.42,2.44-20.42,9.1-29.46,17.99-.55.54-1.48,1.49-2,2-.78.76-1.22,1.18-2,2-.5.52-1.42,1.4-2,2-.29.3-2.79,1.33-3.94,2.78-3.44,4.37-10.57,16.34-9.9,21.53.12.97.84.63.84.68.04.66-.03,1.34,0,2-3.5-.12-2.76-.62-3,2.45-.4,5.03.29,10.47,0,15.55-.58-1.32-1.33-2.18-1.07-3.93l-2.93-.07c.64-12.46.68-20.15,6.99-31.51,2.6-4.67,7.89-9.22,9.01-14.49.41-.27.74-.88,1-1,3.9-1.79,1.54-.83,3-2,4.52-3.62,10.49-8.12,15.63-10.88,7.14-3.83,15.95-7.01,23.37-8.12Z"/>
  <path class="st14" d="M911,380l22.83-11.67c9.4-1.97,18.48-6.63,28.17-6.32.56,3.06-.96,1.52-2.37,2.08-8.6,3.4-18.52,3.95-27.51,8.53-4.6,2.34-13.09,7.71-15.11,12.39-3.68,2.63-5.27,3.8-8,8-2.79.7-6.42,6.31-8,9v-1.99s-1.49-.02-1.49-.02l-1.18,2.03-2.33-.02c.23-.48,0-1.79.55-2.91,1.65-3.29,5.49-6.07,5.45-10.09.39-.33.69-.76,1-1,2.02-1.61,8.11-3.21,7-7,.38-.32.68-.74,1-1Z"/>
  <path class="st15" d="M1011,590c.21.96,1.59,2.79,2,5,.59,3.16.04,5.05,0,8,0,.66-.06,1.35,0,2-1.83.43-1.54,1.78-2,3-.38,1.02-.67,1.96-1,3h-2s0,2,0,2c-2.05,1.58-11.8,12.08-13,14l-1.82.17-.18,1.83c-1.39.45-8.42,4.65-10,6l-6,2c.37-2.78,1.43-1.6,1.97-2.74.33-.7-.11-1.68.03-2.26.09-.4,1.08-1.2,1-2,3.07-1.3,8.2-3.83,10.7-5.31.87-.52,13.33-13.23,14.25-14.46,2.63-3.54,3.85-6.09,4.05-10.23h2s.02-3.45.02-3.45l-2.01-.55c.07-1.66-.05-3.34,0-5l2-1Z"/>
  <path class="st4" d="M973,501c1.99-.09,4.01,0,6,0h2c-1.57,6.27,2.25,7.08,0,13-1.01.24-.92,1.16-1,2-.09.93.22,2.33,0,3-2.11,6.55-5.49,13.72-7.75,20.78-1.62,5.05-2.44,12.12-4.25,17.22-.08.23-.84.57-1,1l-1,1c-.53,1.33-1.94,4.57-1.99,5.56-.08,1.45,1.32,3.68.87,4.28-.23.31-1.64.48-2.27,1.24-3.03,3.64-5.96,8.41-11.61,7.93v-1c3.14-.64,8.26-4.79,9.51-7.99,3.89-17.53,15.48-38.56,18.26-55.75.96-5.96-2.59-8-7.77-10.26v-2c.66-.06,1.34.03,2,0Z"/>
  <path class="st4" d="M960,495v2s3,0,3,0c.99.06,2.01-.09,3,0v4c-14.48-4.05-32.73-.4-45.87,6.63-3.29,1.76-13.7,8.34-16.13,10.37-.13.11-1.18,1.26-2,2-.13.11-1.89,1.87-2,2-.74.81-1.89,1.87-2,2-.22.26-.34,2.23-1.12,3.33-5.11,7.18-8.95,13.19-11.88,21.67,0-.05-.72.29-.84-.68-.66-5.2,6.46-17.16,9.9-21.53,1.15-1.46,3.65-2.49,3.94-2.78.58-.6,1.5-1.48,2-2,.78-.82,1.22-1.24,2-2,.52-.51,1.45-1.46,2-2,9.04-8.89,17.05-15.55,29.46-17.99,2.17-.43,3.55.06,3.54-3.01h8.01s0-2,0-2c4.92.06,10.14-.31,15,0Z"/>
  <path class="st12" d="M988,451c-.52,6.57.71,14.07,0,20.51-.37,3.37-1.39,10.34-2.01,13.49-.99,5.01-3.76,11.03-5,16h-2c3.38-10.84,11.19-43.23,5.07-52.32-1.61-2.4-6.18-1.89-8.46-.56-3.63,2.1-7.74,12.14-10.88,14.64-.6.48-1.59.12-1.73.24.9-5.59,5.57-9.71,9.01-13.73.76-.89.28-2.49,1.72-3.29,6.02-3.36,11.31-.45,14.27,5.02Z"/>
  <path class="st17" d="M1023,631c-.07.64,0,1.33.03,1.98l1.69.27.28,1.75c-9.04,6.77-27.04,24.43-38,26v-4c4.04-1.07,21.09-11.5,24.92-14.58s8.29-9.81,11.08-11.42Z"/>
  <path class="st14" d="M988,451c1.08,2,1.7,3.74,2.04,5.98,2.38.43,2.92-.04,3.96-1.98l1,2c-.15.87.03,2.03,0,3-.05,1.66-.03,3.34,0,5h-2.99c-.78,2.42.97,2.82.99,3,.15.93-.12,2.04,0,3,.08.65-.04,1.34,0,2-5.18.5-2.15,3.35-2,5,.09.99-.09,2.02,0,3,.12,1.31-.04,2.68,0,4h-5c.62-3.15,1.64-10.12,2.01-13.49.7-6.44-.53-13.94,0-20.51Z"/>
  <path class="st10" d="M933,627c.56.13,1.36-.12,2,0,.42,1.91-.87,3.87-.85,5.56.01,1.2.81,2.01.85,2.44.08.98-.12,2.04,0,3-1.44.43-2,1.54-2,3-.46.33-.91,1.81-2,2-.01-.83,0-1.66,0-2.48l-2.02-.03-17.06,24.94c-2.56,2.26-5.43,3.26-8.84,2.43-.43-.33.07-1.63-.09-1.86,2.91.21,5.31.05,7.43-2.07,3.82-3.81,18.24-26.22,21.22-31.78.95-1.77,1.8-2.93,1.35-5.15Z"/>
  <path class="st12" d="M828,614c.78,5.29-4.61,6.82-6.67,9.34-1.42,1.75-7.68,11.82-8.09,13.4-1.71,6.48-.33,13.18,7.32,13.33,3.61.07,11.78-3.88,16.12-4.05,1.53-.06,2.15.96,2.33.98-.2.38-.94.76-1,1l-2,1c-1.06-.16-2.87-.1-4,0-1.75.15-4.64.8-6,2-1.66-.03-3.35.09-5,0-.99-.06-2,.05-3,0-3.18-.16-5.09-.27-7.64-2.33-.6-.49-.27-1.6-.36-1.67l-1-2c.13-.93-.06-2.02,0-3,1.62-1.27,1.41-3.31,2-5,2.88-8.25,11.26-16.34,17-23Z"/>
  <path class="st4" d="M896,402c-.63,1.31-.69,2.32-1,3-.14.32-.85.63-1,1-4.28,10.3-4.31,14.58-6.49,25.06-.35,1.68-.06,3.5-2.51,2.94-.63-13.7,6.34-36.07,17-45,.04,4.02-3.8,6.8-5.45,10.09-.56,1.11-.32,2.43-.55,2.91Z"/>
  <path class="st4" d="M996,408c.87,1.22,2.69-1.02,3,4-2.5-.66-8.92-1.6-10.75.26-.51.52-.35,1.98-.84,2.61-5.91,7.69-9.7,15.18-14.79,23.26-1.32,2.1-2.87,5.73-5.63,5.87,3.17-6.2,17.5-32.05,22.29-34.72.79-.44,1.37-.16,1.71-.28,1.56-.58,3.34-.84,5-1Z"/>
  <path class="st10" d="M919,667v1c-3.24,6.95-7.74,13.7-10,21h-2s0,2,0,2c-.07.65.1,1.37,0,2l-1.96.05-.04,1.95c-.35,1.33-.63,2.68-1,4l-1.9.11-.1,1.89c-.38.29-4.9,5.78-6,7-.2-2.04.58-3.3,1.56-4.93,7.18-11.97,13.03-26.02,21.44-36.07Z"/>
  <path class="st12" d="M945,495v2s-8,0-8,0c-7.42,1.11-16.23,4.29-23.37,8.12-5.14,2.76-11.11,7.26-15.63,10.88-1.46,1.17.9.21-3,2,.13-1.75,2.72-1.7,3-2,9.58-10.46,20.08-17.63,34.77-20.73,5.57-1.18,7.75-.32,12.23-.27Z"/>
  <path class="st4" d="M980,583c1.02-1.67,3.8-.99,5.49-1.01,8.2-.1,12.29-.73,19.39,2.6,1.31.62,2.47,1.56,3.63,2.42l2.49-2c-.02.33.02.67,0,1-.07,1.09-.2,3.07,0,4l-2,1c-3.22-.06-3.53-4.87-6.7-5.8-3.96-1.16-15.07-.86-19.89-1.15-1.33-.08-2.28-1.04-2.41-1.05Z"/>
  <path class="st0" d="M902,621c-.3,1.55-.15,4.83-.04,6.58.08,1.34,1.04,2.29,1.04,2.42.09,2.32,0,4.68,0,7h-2c0-.14-.98-.8-.97-1.58.03-1.87,1.1-3.53.97-5.42-2.49-.94-1.77,1.37-2.29,1.65-1.48.81-3.13.9-4.71,1.34.03-.43-.4-1.18-1-1,.16-.5-.09-1.36,0-2s-.06-1.35,0-2l6.84-2.15.16-4.85c.56.14,1.36-.09,2,0Z"/>
  <path class="st10" d="M931,644c-.46,3.2-2.09,5.71-3,9h-2s0,2,0,2c-.07.65.1,1.37,0,2h-2s0,2,0,2c-.12.61.17,1.53,0,2l-3,1c.66-5.48.5-2.95,1.97-5.73,2.01-3.81,3.72-10.95,8.03-12.27Z"/>
  <path class="st12" d="M884,626v4c-1.37.48-6.23.76-7,2l-2,1c-1.6-.1-3.45.55-5,1-.39-1.8,3.85-3.73,5.12-4.39,2.8-1.45,5.89-2.61,8.88-3.61Z"/>
  <path class="st12" d="M868,635v1l-4.88,1.14-.12,1.86c-1.25.31-2.79.02-4,1l-2,1c-1.74-.13-3.82,1.75-6,2,.16-.9-.12-2.04,0-3,4.11,1.45,4.71-1.44,5.78-1.91,4.54-2,6.74-3.49,11.22-3.08Z"/>
  <path class="st10" d="M881,704l4.69,4.81,9.31.19c-.66.67-1.37,1.34-2,2-2.8.7-5.2.7-8,0-2.35-1.96-3.54-.39-4-5-.07-.65.03-1.34,0-2Z"/>
  <path class="st10" d="M900,621l-.16,4.85-6.84,2.15v-1c2.49-1.19,3.28-3.44,0-3,.1-.08-.21-1.37.3-1.66,2.99-1.71,3.69-2.09,6.7-1.34Z"/>
  <path class="st13" d="M967,641c.33-.01.67,0,1,0l.2,2.81,2.8,1.19c-3.03.77-3.88,1.51-8,2l.26-1.78,1.75-.72-2.01-1.5.69-2.02c1.1-.17,2.22.07,3.31.02Z"/>
  <path class="st13" d="M999,412c.45.12,1.21-.25,1.75.19l.33,1.23c-.25,4.03.07,8.09-.08,12.12-.08,1.92,1.03,4.01-2,3.46-.11-5.6.35-11.45,0-17Z"/>
  <path class="st13" d="M962,647c.7,5.38,6.43,7.67,9,12-.12,0-.55,1.35-1.92.57-2.03-1.15-8.67-8.76-9.1-11.06-.31-2.1.53-1.46,2.02-1.51Z"/>
  <path class="st13" d="M893,624c3.28-.44,2.49,1.81,0,3-1.98.95-4.53.5-6.27,1.05-.68.22-.29,1.09-2.73,1.95v-4c1.75-.59,8.02-1.16,9-2Z"/>
  <path class="st15" d="M1073,465c.66.03,1.34-.04,2,0v2s2,0,2,0c.08,1.93-.26,4.2,0,6l-1,1h-1c-.24-1.46-1.6-4-1.43-6.08l-4.53-.98-.04-1.94c1.33.02,2.67-.06,4,0Z"/>
  <path class="st12" d="M966,497c2.61.24,7.12.58,7,4-.66.03-1.34-.06-2,0v2c-.55-.24-4.72-1.92-5-2v-4Z"/>
  <path class="st0" d="M890,651c.29.91,2.39,1.42,1.81,4.24-.25,1.25-2.2,4.48-3.81,3.76-.08-.49-.5-.9-1-1,.22-1.04-.03-2.77,0-4,.02-.67,0-1.33,0-2l3-1Z"/>
  <path class="st10" d="M884,686c.16,3.74-1.83,7.95-1,12.01h-2c-.05-1,.02-2.01,0-3.01-.06-2.33.06-4.67,0-7,.42-1.08,1.84-3.13,2-4,.92.37.96,1.16,1,2Z"/>
  <path class="st13" d="M1022,665c-.09.09.06,1.37-1.01,2.45s-9.4,6.2-10.69,6.33c-.8.08-1.23-.79-1.31-.78l13-8Z"/>
  <path class="st15" d="M1056,467l-6.05,3.45c-3.02.7-5.93,1.89-8.95,2.55v-1c1.69-.84,3.66-1.61,5-3,.64-.09,1.35.08,2,0,2.51-.3,4.54-1.61,8-2Z"/>
  <path class="st0" d="M884,686c-.04-.84-.08-1.63-1-2,.2-1.15-.06-2.72,0-4s0-2.67,0-4l3-1c.13,3.34,1.14,9.36-2,11Z"/>
  <path class="st13" d="M1019,609c0-.1-1.51-.75-.59-1.97l4.48-1.9c.36.54-.05,1.67.11,1.87.11.13,1.62-.11,2.78,1.68.77,1.17,3.89,8,4.07,9.13.24,1.54-.86,2.08-.86,2.2l-6-13-4,2Z"/>
  <path class="st0" d="M888,662c-.14,4.34-1.46,7.65,0,12h-1.99c-.1-2.04-.98-3.6-1-4-.08-1.32.09-2.68,0-4-.07-.99.06-2.01,0-3l3-1Z"/>
  <path class="st13" d="M1060,465c-.56-3.03,1.53-1.92,3.46-2s4.08-.07,6.09,0,4.01-1.02,3.46,2c-1.33-.06-2.67.02-4,0-2.33-.04-4.67-.03-7,0-.67,0-1.33-.01-2,0Z"/>
  <path class="st15" d="M958,643c-2.89.25-3.14.7-7,0-1.22-.22-2.88-.57-4-1l-1-3c3.66,1.57,8.37,2.39,12,4Z"/>
  <path class="st4" d="M999,435c.02,2-.05,4,0,6-.64.92-1.88,4.15-2,5-3.22-3.52,1.91-7.16,0-11h2Z"/>
  <path class="st13" d="M958,643c.97-.08,2.07.14,3,0,.55,4.27-10.73,4.09-10,0,3.86.7,4.11.25,7,0Z"/>
  <path class="st13" d="M881,695c.02,1-.05,2,0,3,.09,1.99-.1,4.01,0,6,.03.66-.07,1.35,0,2l-1.75-.19-.33-1.23.09-9.58h2Z"/>
  <path class="st17" d="M985,661c-1.85,2.95-6.72,2.05-6,7-.39-.25-2.03.61-2.05-.56-.51-3.37,4.04-6.75,6.79-7.21.81-.14,1.19.78,1.27.77Z"/>
  <path class="st13" d="M1023,631c.27-2.53,4-7.35,6-9-.01.1,1.15.38.55,1.89-1.2,3.02-3.93,5.6-6.55,7.11Z"/>
  <path class="st13" d="M1021,538l.12,1.86,5.77,1.29.12,1.86c-.98-.04-2.11.14-3,0-2.09-.34-6.58-1.44-6-4,1.06-.2,2.1-.36,3-1Z"/>
  <path class="st4" d="M885,446c-1.65-2.48-1.7-7.36,0-10,.16,4.1.2,5.62,0,10Z"/>
  <path class="st12" d="M849,643v2c-1.29.29-2.78.02-4,1l-2,1c-.62-.11-1.39.12-2,0-.59-2.37,4.99-4.57,6.7-4.78.8-.1,1.23.79,1.3.78Z"/>
  <path class="st4" d="M910,381c1.11,3.79-4.98,5.39-7,7,.31-4.11,4.77-5.11,7-7Z"/>
  <path class="st13" d="M1035,635c3.96-.36,2.77,5.12,1.84,7.87l-1.84.13c.05-2.65.1-5.36,0-8Z"/>
  <path class="st13" d="M1057,465v2c-.33.03-.67-.04-1,0-3.46.39-5.49,1.7-8,2-1.21-1.97,6.63-4.67,7.69-4.77.8-.08,1.23.78,1.31.77Z"/>
  <path class="st13" d="M1034,581l-.06,1.92c-2.19-.14-4.51,1.15-6.53,1.13-1.45,0-2.28-1.05-2.41-1.06.89-.63,4.21-1.9,5-2,1.26-.16,2.7.05,4,0Z"/>
  <path class="st13" d="M893,711c-.64.66.48,3.15-4.43,2.95-4.06-.16-3.36-2.78-3.57-2.95,2.8.7,5.2.7,8,0Z"/>
  <path class="st13" d="M1046,469c-1.34,1.39-3.31,2.16-5,3-.57.28-1.57.1-2,1-.66-.04-1.34.03-2,0-1.2-1.97,6.58-4.66,7.7-4.78.8-.09,1.23.79,1.3.78Z"/>
  <path class="st13" d="M1035,630c-1.13.33-5.57.68-6,1-.14.1.23.51-2,2-.74-2.61,1.75-1.76,2-2,.21-.21.27-2.11,1.4-3.07,2.57-2.18,4.13-.88,4.6,2.07Z"/>
  <path class="st4" d="M1059,577l-4,2c-1.33-.01-2.67.07-4,0l.66-2.03c1.63-.15,3.29-1.01,4.89-1.02,2.34-.01,2.31,1.05,2.45,1.05Z"/>
  <path class="st4" d="M1024,479c-2.51,5.02-3.62,2.91-8,4l1-2c1.07-.3,2.07-.74,3-1,1.32-.37,2.67-.67,4-1Z"/>
  <path class="st13" d="M883,680c-.06,1.28.2,2.85,0,4-.16.87-1.58,2.92-2,4,0-.13-1.05-.11-1.05-2.45,0-1.59.88-3.27,1.02-4.89l2.03-.66Z"/>
  <path class="st13" d="M1013,595l1.92.06c.25,2.85,2.24,8.32-1.92,7.94.04-2.95.59-4.84,0-8Z"/>
  <path class="st13" d="M987,638c.75,2.3-5.97,4.75-8,5-.02-3.56,5.27-3.84,8-5Z"/>
  <path class="st13" d="M999,441c0,.13,1.03.97,1.06,2.42.03,1.6-.89,3.3-1.03,4.93l-2.03.66c.04-.98-.13-2.08,0-3,.12-.85,1.36-4.08,2-5Z"/>
  <path class="st13" d="M992,675c-.12,0-.66,1.11-2.19.85-.51-.08-4.53-1.55-5.13-1.85-1.24-.62-.55-1.9-.68-2.01,2.65.89,6.21.66,8,3Z"/>
  <path class="st13" d="M924,661c-.9,2.47-2,7.1-5,7v-1c1.23-1.47,1.79-3.26,2-5l3-1Z"/>
  <path class="st4" d="M989,491c0,.33-.01.67,0,1,.03,1-.04,2.01,0,3,1.19.18,1.72-1.86,1.99-2s.73.13,1,0c-.09.97.14,2.05,0,3-1.67-.03-3.34.03-5.01,0v-5.01s2.01,0,2.01,0Z"/>
  <path class="st4" d="M1030,516c-3.93,6.86-6.92,7.46-12,12-.13.11-1.65,1.65-2,2-.27.27.72,2.98-3,2,1.46-1.75,2.87-1.86,3-2,1-1.13,1.6-1.57,2-2,4.85-5.3,5.15-7.42,12-12,2.87-5.01,5.58-8.43,8.42-13.08,3.7-6.05,6-14.31-3.93-14.98-4.87-.33-34.1,8.88-39.67,11.4-11.16,5.06,1.11,17,6.04,23.35.81,1.04.96,3.1,1.15,3.31h-2s0,3,0,3h1.99s0-3,0-3c.13.14,1.59.08,2.42,1.04,2.15,2.49,3.45,6.43,7.58,5.96-.37.56-.09,2.46-1.52,3.01-3.55.72-7.05-9.82-9.48-4.01-.55-1.27-7.63-10.84-9.02-12.48-.68-.8-2.85-3.25-3.49-3.51-1.96-.79-1.42,1.38-1.76,2.18-1.26,2.97-1.56,6.54-3.73,8.81,0-.13-1.22-.91-1.04-2.4.2-1.68,1.71-2.57,2.04-3.6,1.42-4.41.09-6.33,6-8.54.6-1.99-4.4-5.63-.69-12.68,1.07-2.04,2.28-.92,2.69-3.78,12.48.24,26.71-7.11,38.76-10.82,7.54-.6,14.75,3.89,13.02,12.09-.51,2.41-8.96,15.22-10.92,17.12-1.41,1.37-2.12,1.12-2.85,1.6Z"/>
  <path class="st13" d="M1047,579c.33.02.67-.02,1,0l-.06,1.92c-1.89-.19-4,1.03-5.63,1.05s-2.19-.96-2.31-.97l4-2c.98.09,2.01-.06,3,0Z"/>
  <path class="st4" d="M1030,581c-.79.1-4.11,1.37-5,2-1-.02-2,0-3,0l.66-2.03c2.27-.22,5.7-2.25,7.34.03Z"/>
  <path class="st13" d="M885,666c.09,1.32-.08,2.68,0,4l-2,4c0-.13-.98-.75-.97-2.31s1.24-3.74,1.05-5.63l1.92-.06Z"/>
  <path class="st13" d="M1031,654c1.15-2.62,2-5.9,4-8,0,.08.86.51.77,1.31-.18,1.66-2.41,7.31-4.77,6.69Z"/>
  <path class="st13" d="M1076,575l-.06,1.92c-1.89-.19-4,1.03-5.63,1.05s-2.19-.96-2.31-.97l4-2c1.33.04,2.67-.08,4,0Z"/>
  <path class="st13" d="M1003,628c-2,1.83-3.6,4.67-7,5,.2-.22.06-1.5,1.6-2.86,1.4-1.25,3.51-2.29,5.4-2.14Z"/>
  <path class="st13" d="M887,654c-.03,1.23.22,2.96,0,4-.15.7-1.53,2.2-2,3-.03-1.37-1.66-2.88-.02-6.34l2.02-.66Z"/>
  <path class="st13" d="M1043,545c.11,0,.61-.88,1.45-.88,1.67.02,3.64,1.08,5.49.96l.07,1.91c-1.33.06-2.67-.04-4,0l-3-2Z"/>
  <path class="st4" d="M1087,573l-4,2c-1-.03-2.01.06-3,0l.66-2.03c1.62-.18,3.17-1.01,4.83-.98,1.77.04,1.42,1,1.51,1Z"/>
  <path class="st13" d="M1017,612c-2.64,4.52-2.09,3.12-5,6-.26.26-.14,2.81-2,3,.24-.7-.22-2.09.02-2.99h1.98c.67-2.47,2.15-5.94,5-6.01Z"/>
  <path class="st10" d="M892,642c-1.22.79-.79,2-1,3-.64.09-1.36-.09-2,0,.09-1.31.02-2.68,0-4l2-2c.04.25.75,2.12,1,3Z"/>
  <path class="st4" d="M1075,477c-.07,3.49-.06,3.58-2.7,5.95l-1.3.05c.74-2.2,1.31-4.27,3-6h1Z"/>
  <path class="st13" d="M946,639l1,3c-2.59-.99-4.64-1.71-5-5,.73.44,3.13,1.63,4,2Z"/>
  <path class="st13" d="M1062,577l-.07,1.91c-1.85-.12-3.81.95-5.48.95-.83,0-1.34-.87-1.45-.87l4-2c1,.03,2.01-.06,3,0Z"/>
  <path class="st15" d="M972,639l-2,2c-.67-.01-1.33,0-2,0-.33,0-.67-.01-1,0v-3c1.96-.93,4.24.92,5,1Z"/>
  <path class="st10" d="M886,674c.02.33-.01.67,0,1l-3,1c0-.67.01-1.33,0-2l2-4c.02.39.9,1.96,1,4Z"/>
  <path class="st4" d="M1044,579l-4,2c-.67-.01-1.33,0-2,0-.06-2.89,1.86-3.31,4.49-3.02,1.73.19,1.42,1.01,1.51,1.02Z"/>
  <path class="st13" d="M1065,549c1.29,0,3.8-.9,5.94.09l.06,1.91c-1.33.03-2.67,0-4,0l-2-2Z"/>
  <path class="st13" d="M995,465c.02,1.05,1.45,2.32.02,5.34l-2.02.66c-.12-.96.15-2.07,0-3l1-3h1Z"/>
  <path class="st13" d="M1089,573c.7,2.36-2.37,3.06-4.42,2.98-.84-.03-1.43-.97-1.58-.98l4-2c.66,0,1.34-.04,2,0Z"/>
  <path class="st13" d="M983,635c-.14.12,0,1.64-1.01,2.45s-3.61,1.35-4.99,1.55c.06-.65-.08-1.36,0-2l6-2Z"/>
  <path class="st13" d="M997,454c.02,1.05,1.45,2.32.02,5.34l-2.02.66c.03-.97-.15-2.13,0-3,.08-.46,1.53-1.76,1-3h1Z"/>
  <path class="st13" d="M1007,673l-.66,2.02c-3.02,1.43-4.29,0-5.34-.02,1.49-1.64,3.91-1.86,6-2Z"/>
  <path class="st13" d="M1032,543c1.05-.02,2.32-1.45,5.34-.02l.66,2.02c-.98.09-2.05-.13-3,0l-3-1v-1Z"/>
  <path class="st4" d="M1072,575l-4,2c-.66-.01-1.34.04-2,0-.73-2.32,2.49-3.11,4.48-3.01,1.8.09,1.43,1.01,1.52,1.01Z"/>
  <path class="st13" d="M1054,547c1.05-.02,2.32-1.45,5.34-.02l.66,2.02c-.98.08-2.08-.14-3,0l-3-1v-1Z"/>
  <path class="st4" d="M1065,549l2,2c-.1,0-.6.95-1.51.94-1.43-.02-2.83-2.23-4.48-.95v-1.99c1.31-.07,2.66,0,3.99,0Z"/>
  <path class="st12" d="M863,581l-1.16,3.86c-.74.54-2.12-.06-2.84.14.04-3.34,2.13-3.04,4-4Z"/>
  <path class="st10" d="M890,648c-.08.71-.16,2.49,0,3l-3,1c0-.67.02-1.33,0-2,.48-.81,1.84-2.27,2-3l1,1Z"/>
  <path class="st13" d="M832,649l-.66,2.02c-3.02,1.43-4.29,0-5.34-.02,1.36-1.2,4.25-1.85,6-2Z"/>
  <path class="st10" d="M888,659c.14.83.03,2.08,0,3l-3,1c-.04-.66.02-1.34,0-2,.47-.8,1.85-2.3,2-3,.5.1.92.51,1,1Z"/>
  <path class="st4" d="M1013,484l.98.5c-1.63,1.87-4.56,1.87-6.98,2.5l1-2c1.09-.27,2.16-.82,3-1,.6-.13,1.41.14,2,0Z"/>
  <path class="st4" d="M993,473c.04.66,0,1.34,0,2l-2,3c-.15-1.65-3.18-4.5,2-5Z"/>
  <path class="st10" d="M894,633c-.1,1.33-.6,2.67-1.17,3.86-.55.44-1.42,0-1.83.14-.13-.9.03-2.02,0-3,.44-.59,1.84-1.49,2-2,.6-.18,1.03.57,1,1Z"/>
  <path class="st13" d="M993,475c0,1.27.91,3.8-.09,5.94l-1.91.06c-.09-.98.09-2.01,0-3l2-3Z"/>
  <path class="st15" d="M1060,465c.67-.01,1.33,0,2,0v2c-1.65.12-3.35-.14-5,0v-2c1-.04,2,.02,3,0Z"/>
  <path class="st13" d="M1102,563h1.99s-1.24,4.79-1.24,4.79c-.59.47-1.45.07-1.75.21.11-.62-.17-1.5,0-2,.11-.33,1.72-1.46,1-3Z"/>
  <path class="st13" d="M889,645c-.05.65.12,1.45,0,2-.16.73-1.52,2.19-2,3-.01-.53-1.79-1.7-.08-4.41.4-1.04,1.36-.49,2.08-.59Z"/>
  <path class="st13" d="M1016,583l-.12,1.86-4.88,1.14c.02-.33-.02-.67,0-1v-1c.92.31,1.77-.95,2-1,.83-.18,2.04.06,3,0Z"/>
  <path class="st13" d="M1008,485l-1,2c-.62.16-1.62-.24-2.37.11-.38.16-.49.55-.63.89h-2l.11-1.86c1.87-.66,4.02-.68,5.89-1.14Z"/>
  <path class="st4" d="M1043,545l3,2c-1.11.03-5.28,2.35-5-2,.66-.03,1.34,0,2,0Z"/>
  <path class="st4" d="M1075,551l3,2c-1.21.06-5.25,2.32-5-2,.66-.03,1.34,0,2,0Z"/>
  <path class="st13" d="M991,485c.03,1.11,2.34,5.28-2,5,.07-.65-.12-1.43,0-2,.12-.53,1.52-1.71,1-3h1Z"/>
  <path class="st12" d="M841,601c-.75,2.24.61,4.47-4,4,1.33-1.3,1.48-4.35,4-4Z"/>
  <path class="st13" d="M991,409c-.66-2.11,1.74-2.83,3.57-3.01,2.44-.24,1.08,1.52,1.43,2.01-1.66.16-3.44.42-5,1Z"/>
  <path class="st13" d="M1017,481l-1,2c-1.25.31-2.37.85-3,1-.59.14-1.4-.13-2,0-.79-3.04,3.68-2.34,6-3Z"/>
  <path class="st13" d="M1075,551c.79,0,3-1.22,4.88.15l.12,1.85c-.66.03-1.34-.03-2,0l-3-2Z"/>
  <path class="st13" d="M868,636l-.11,1.86c-1.63.36-3.27.73-4.89,1.14l.12-1.86,4.88-1.14Z"/>
  <path class="st13" d="M811,637c-.59,1.69-.38,3.73-2,5,.02-.39-1.27-3.25.15-4.88l1.85-.12Z"/>
  <path class="st13" d="M977,643c-.6,2.42-2.55,1.6-4,2-.5-3.99,3.35-1.95,4-2Z"/>
  <path class="st13" d="M983,657c.6,3.69-3.49,2.01-5,2,1.25-1.44,3.24-1.66,5-2Z"/>
  <path class="st13" d="M1025,477c.04.88-.71,1.42-1,2-1.33.33-2.68.63-4,1-.95-2.26,3.03-2.85,5-3Z"/>
  <path class="st4" d="M1094,571c-.87.38-.23,1.54-4,2-.58-2.29,1.54-2.57,3.4-2.85l.6.85Z"/>
  <path class="st13" d="M891,637c.1.64-.1,1.37,0,2l-2,2c-.04-2.76-1.98-2.67,2-4Z"/>
  <path class="st13" d="M974,639c.39,3.89-2.89,2.02-4,2l2-2c.65.07,1.34-.03,2,0Z"/>
  <path class="st13" d="M893,630c-.09.64.16,1.5,0,2s-1.56,1.41-2,2c-.03-1.14-1.88-4.38,2-4Z"/>
  <path class="st13" d="M1083,553c1.15-.03,4.38-1.87,4,2-.62.11-1.37-.11-2,0l-2-1v-1Z"/>
  <path class="st13" d="M933,641c0-1.46.56-2.57,2-3,.03.21.8.41.84.79l-.25,1.24c-.79.95-2.2.68-2.59.96Z"/>
  <path class="st13" d="M1030,657c-1.66,3.95-1.68,1.94-3,3,.06-1.97.98-3.13,3-3Z"/>
  <path class="st13" d="M1011,608c.46-1.22.17-2.57,2-3,.02.18,1.59.72.57,2.03l-2.57.97Z"/>
  <path class="st13" d="M821,651v2s-2.5,0-2.5,0l-.5-2.01c1,.05,2.01-.06,3,0Z"/>
  <path class="st13" d="M976,659v2s-2.5,0-2.5,0l-.5-2.01c.99.03,2,.02,3,0Z"/>
  <path class="st12" d="M960,495c.99.06,2.01-.08,3,0v2s-3.01,0-3.01,0v-2Z"/>
  <path class="st4" d="M1102,563c.72,1.54-.89,2.67-1,3-2.02-1.33-.04-2.51,0-3h1Z"/>
  <path class="st13" d="M991,493c-.27.14-.8,2.18-1.99,2-.04-.99.02-2,0-3l2,1Z"/>
  <path class="st4" d="M1099,559c.29.66.84,1.4,1,2h-3c-.03-.67,0-1.33,0-2h2Z"/>
  <path class="st13" d="M928,653c-.14.5.2,1.34-.03,1.96l-1.97.04v-2s2,0,2,0Z"/>
  <path class="st4" d="M1004,488c-.18.44.15,1.38,0,2-.94.35-1.8-.99-1.99-1v-1h2Z"/>
  <path class="st4" d="M1031,476v1.99c-1.11.41-1.87-.97-2-.99v-1h2Z"/>
  <path class="st13" d="M1031,475v1h-2v-1.99c1.11-.41,1.87.97,2,.99Z"/>
  <path class="st13" d="M926,657c-.1.62.1,1.35,0,2h-2s0-2,0-2h2Z"/>
  <polygon class="st4" points="1037 473 1037 475 1035 475 1035 473 1037 473"/>
  <path class="st13" d="M1075,465c.66.04,1.34-.06,2,0,.06.66-.03,1.33,0,2h-2s0-2,0-2Z"/>
  <path class="st13" d="M1097,557c.62.07,1.3-.22,1.92.09.36.59-.08,1.54.08,1.91h-2c0-.67,0-1.33,0-2Z"/>
  <path class="st13" d="M1077,473c.02.11,1.47.61,1,1.99l-2-.99,1-1Z"/>
  <path class="st13" d="M909,689c-.15.48.2,1.34-.03,1.97l-1.97.03v-2s2,0,2,0Z"/>
  <path class="st13" d="M859,640v2c-.97.36-1.82-.98-2-1l2-1Z"/>
  <path class="st13" d="M907,693c-.1.62.1,1.35,0,2h-2s.04-1.95.04-1.95l1.96-.05Z"/>
  <path class="st13" d="M1090,555c.13-.02.86-1.41,1.99-.99v1.99s-1.99,0-1.99,0v-1Z"/>
  <path class="st13" d="M904,699c-1.03,3.66-.86,1.13-2,2l.1-1.89,1.9-.11Z"/>
  <path class="st4" d="M1092,556v1c-.13.02-.9,1.4-1.99.99v-1.99s1.99,0,1.99,0Z"/>
  <path class="st13" d="M995,627c-.23.36.25,1.75,0,2-.24.24-1.46-.17-2,0l.18-1.83,1.82-.17Z"/>
  <path class="st13" d="M851,643c-.11.6.12,1.35,0,1.99-.64.14-1.43-.12-1.99,0v-2c.63-.1,1.35.08,2,0Z"/>
  <path class="st13" d="M810,647c-.21-.16-1.43.32-1.9-.14-.69-1.11.87-1.69.9-1.86l1,2Z"/>
  <path class="st13" d="M1010,611c-1.13,3.57-.99,1.23-2,2v-2s2,0,2,0Z"/>
  <path class="st13" d="M845,646v1.99c-1.18.43-1.88-.97-2-.99l2-1Z"/>
  <path class="st13" d="M877,632c-.19.3.2,1.4-.02,2-1.02.47-1.86-.99-1.98-1l2-1Z"/>
  <polygon class="st13" points="937 635 937 633.01 938.49 632.99 939 635 937 635"/>
  <path class="st12" d="M835,607v2s-2,0-2,0c1.15-1.28,1.03-1.06,2-2Z"/>
  <path class="st13" d="M838,648c-.14.55.12,1.36,0,2-1.1.47-1.86-.98-2-1l2-1Z"/>
  <polygon class="st4" points="1057 499 1057 501 1055 501 1055 499 1057 499"/>
  <path class="st4" d="M1049,579c-.33-.02-.67.02-1,0s-.67.02-1,0l1.49-1,.51,1Z"/>
  <path class="st15" d="M1075,477h-1c.33-.34.63-.7,1-1,.02.33,0,.67,0,1Z"/>
  <path class="st8" d="M977,583c.99-.04,2.01-.02,3,0,.13,0,1.08.97,2.41,1.05,4.81.29,15.93,0,19.89,1.15,3.17.93,3.48,5.74,6.7,5.8-.05,1.66.07,3.34,0,5-.06,1.33.06,2.67,0,4-.2,4.14-1.42,6.69-4.05,10.23-.91,1.23-13.37,13.94-14.25,14.46-2.51,1.48-7.63,4.01-10.7,5.31-6.27,2.66-15.25,5.61-22,6-.65.04-1.35.04-2,0v-2c-.65-.11-1.38.1-2,0-.33-.05-.68.06-1,0-.57-2.94-3.97-6.38-7-7-.04-.32,0-.67,0-1-.01-4.74,1.4-7.7,3-12,.68-1.82,1.16-3.97,2-6,.64-1.55,2.1-2.37,3-6,.23-.93.85-1.8,1-3,3.15-3.34,3.69-11.45,7.61-13.89,1.66-1.04,11.57-1.98,14.39-2.11Z"/>
  <path class="st2" d="M1030,516c-6.85,4.58-7.15,6.7-12,12-.4.43-1,.87-2,2-.13.14-1.54.25-3,2-.3.37-.78.67-1,1-4.12.47-5.42-3.47-7.58-5.96-.83-.96-2.29-.9-2.42-1.04-.19-.21-.34-2.26-1.15-3.31-4.92-6.36-17.2-18.29-6.04-23.35,5.57-2.53,34.8-11.73,39.67-11.4,9.93.67,7.63,8.93,3.93,14.98-2.84,4.66-5.55,8.08-8.42,13.08Z"/>
  <path class="st2" d="M1018,545c2.02,1.19,3.57,1.91,6,2,.67.02,1.33-.02,2,0,1.12,1.78,3.05,1.98,5,2,.66,0,1.34.04,2,0,1.09,1.77,3.1,1.97,5,2,.66,0,1.35.05,2,0,.92,1.42,2.42,1.88,4,2,.64.05,1.35.04,2,0,.92,1.42,2.42,1.88,4,2,.64.05,1.35.04,2,0,.94,1.69,2.51,1.55,4,2,.49.15,1.42-.22,2.25.04.93.29,1.2,1.55,1.75,1.96.73,4.22-.83,5.77-4,8-.99-.03-2.01-.04-3,0-2.08.08-4.55.41-6,2-.66-.04-1.34.02-2,0-2.39-.06-5.27.2-7,2-1.33.03-2.68-.09-4,0-1.71.12-4.66.82-6,2-.98-.06-2.02-.04-3,0-2.08.08-4.55.41-6,2-1.64-.02-3.37-.12-5,0-1.88-5.7-.86-12.44-1-18.49-.05-2.31-2.06-7.33,0-9.51.26-.27,2.79-.29,3-2h2Z"/>
  <path class="st3" d="M1001,532c.19.45-.16,1.42,0,2,.37,1.33,1.15,3.2,1.01,4.46-.34,3.07-11.92,9.93-15.01,13.54-.31.36-.68.65-1,1-3.06,1.29-8.2,4.56-9,8h-4c-.73-3.03,1.74-5.31,2-8,.06-.63.04-1.36,0-2,1.43-.92,1.86-2.41,2-4,.05-.63.05-1.37,0-2,1.43-.92,1.86-2.41,2-4,.05-.63.05-1.37,0-2,1.43-.92,1.86-2.41,2-4,.05-.63.05-1.37,0-2,1.41-.91,1.89-2.42,2-4,.05-.65.03-1.35,0-2,2.17-2.27,2.47-5.84,3.73-8.81.34-.8-.2-2.97,1.76-2.18.64.26,2.82,2.71,3.49,3.51,1.39,1.64,8.48,11.21,9.02,12.48Z"/>
  <path class="st17" d="M1005,554l2.02.65c-.74,4.22,1.56,17.06-1.47,19.44-1.27,1-3.35.74-3.56.91h-22s2-5,2-5c.67-.33,1.33-.67,2-1,1.98-.98,5.08-2.66,5-5,2.32-1.12,2.95-.04,5-3,1.98-.05,3.24-1.27,4-3,1.79-.79,3.96-2.32,5-4h2Z"/>
  <path class="st14" d="M980,519c.92,1.82,1.91,2.42,4,2-.33,1.03-1.84,1.91-2.04,3.6-.17,1.49,1.04,2.27,1.04,2.4.03.65.05,1.35,0,2h-3c-.85,1.65.97,3.55,1,4,.05.63.05,1.37,0,2h-3c-.85,1.65.97,3.55,1,4,.05.63.05,1.37,0,2h-3c-.85,1.65.97,3.55,1,4,.05.63.05,1.37,0,2l-2.96,1.65c-.43,1.39.96,2.22.96,2.35.04.64.06,1.37,0,2-2.46-.38-3.31,2.86-4,5l-3-1c1.8-5.1,2.63-12.17,4.25-17.22,2.26-7.06,5.64-14.23,7.75-20.78Z"/>
  <path class="st4" d="M1016,545c-.21,1.71-2.74,1.73-3,2-2.06,2.18-.05,7.2,0,9.51.14,6.05-.88,12.79,1,18.49-.18.01-.92,1.46-1.9.96l-2.09-4.56c1.35-4.49-1.59-21.78.98-23.9.59-.49,1.8-.3,2-.5.24-.23.24-2.65,1.51-3l1.49,1Z"/>
  <path class="st4" d="M977,583c-2.83.13-12.73,1.07-14.39,2.11-3.92,2.44-4.46,10.55-7.61,13.89.03-.22-1.52-1.93,0-4,.59-.37.69-2.29,1-3,.96-2.2,1.32-1.7,1.91-2.79.43-.8.15-2.3,1.04-3.75,3.16-5.15,13.06-5,18.06-2.46Z"/>
  <path class="st4" d="M982,570l-2,5h22c-.11.09.28,1.37-.18,1.77-.8.69-18.9.5-21.1.02-1.42-.31-3.76-1.29-3.6-3.1.7-4.04,3.34-2.91,4.88-3.68Z"/>
  <path class="st4" d="M975,553c-.26,2.69-2.72,4.97-2,8h4c.8-3.44,5.94-6.71,9-8-4.24,4.65-4.54,4.32-9,8-.19.16.08,2.34-1.6,2.89-5.64,1.84-5.72-1.78-4.4-5.89.69-2.14,1.54-5.38,4-5Z"/>
  <path class="st4" d="M1018,539c-.58,2.56,3.91,3.66,6,4v4c-2.43-.09-3.98-.81-6-2l-.02-1.35c-2.46-1.01-2.2-2.09-1.98-4.65.65-.12,1.41.11,2,0Z"/>
  <path class="st4" d="M1001,534c4.8-1.45,3.34,5.62,2.07,7.57-1.77,2.72-5.77,3.31-7.75,4.75s-3.95,6.45-8.32,5.68c3.08-3.61,14.67-10.46,15.01-13.54.14-1.26-.64-3.14-1.01-4.46Z"/>
  <path class="st4" d="M1060,559c.27.2,1.76-.6,2.05.59.72,2.93-.73,7.39-3.81,8.3-1.43.42-2.12-.89-2.24-.89,3.17-2.23,4.73-3.78,4-8Z"/>
  <path class="st4" d="M1045,569l-.66,2.02c-3.47,1.64-5.27-.05-6.34-.02,1.73-1.8,4.61-2.06,7-2Z"/>
  <path class="st4" d="M1034,571v3c-2.15,1.02-5.14-.94-6-1,1.34-1.18,4.29-1.88,6-2Z"/>
  <path class="st4" d="M1053,567c-.43,5.37-4.29,2.11-6,2,1.45-1.59,3.92-1.92,6-2Z"/>
  <path class="st4" d="M1025,573c.7,2.36-2.38,3.07-4.42,2.98-.84-.04-1.44-.97-1.58-.98,1.45-1.59,3.92-1.92,6-2Z"/>
  <path class="st4" d="M1038,551c-1.9-.03-3.91-.23-5-2,1.51-.1,4.53-3.23,5,2Z"/>
  <path class="st4" d="M989,564c.08,2.34-3.02,4.02-5,5-1-3.65,2.6-3.84,5-5Z"/>
  <path class="st4" d="M1026,547c.74.03,5.37-2.42,5,2-1.95-.02-3.88-.22-5-2Z"/>
  <path class="st4" d="M1056,557c-1.49-.45-3.06-.31-4-2,.13,0,.96-1.39,2.35-.96l1.65,2.96Z"/>
  <path class="st4" d="M1050,555c-1.58-.12-3.08-.58-4-2,.13,0,.96-1.39,2.35-.96l1.65,2.96Z"/>
  <path class="st4" d="M1044,553c-1.58-.12-3.08-.58-4-2,.14-.01.96-1.39,2.35-.96l1.65,2.96Z"/>
  <path class="st4" d="M998,558c-.76,1.73-2.02,2.95-4,3,.26-.37-.13-1.75.97-2.52s2.48-.24,3.03-.48Z"/>
  <path class="st4" d="M1057,549c-.37.06-1.5,1.65-3,.99v-1.99s3,1,3,1Z"/>
  <path class="st4" d="M1035,545c-.35.05-1.51,1.65-3,.99v-1.99s3,1,3,1Z"/>
  <path class="st4" d="M1085,555c-.12.02-.82,1.42-1.99.99v-1.99s1.99,1,1.99,1Z"/>
  <path class="st4" d="M1013,583c-.23.05-1.08,1.31-2,1v-1.99s1.49,0,1.49,0l.51.99Z"/>
  <path class="st4" d="M1041,472v1c-2.09.46-1.07.06-2,0,.43-.9,1.43-.72,2-1Z"/>
  <path class="st4" d="M1003,554c.19-.31-.16-1.41,0-2h1.49s.51,2,.51,2h-2Z"/>
  <path class="st14" d="M966,559l1-1c-.14.4-.89.72-1,1Z"/>
  <path class="st5" d="M966,501c.28.08,4.45,1.76,5,2,5.18,2.25,8.74,4.29,7.77,10.26-2.78,17.2-14.38,38.22-18.26,55.75-1.25,3.2-6.37,7.35-9.51,7.99-1.61.33-4.14-.1-6,0-2.29.12-4.71.08-7,0-1.66-.06-3.35.13-5,0-.18-.01-1.39-.93-3.5-1.1-1.07-.08-3.12-.16-3.5,1.1-1.65-.11-3.34.09-5,0,.02-.67,0-1.34,0-2-3.66.05-7.35-.09-11.01,0-1.33.03-2.67,0-4,0-1,0-2-.01-3,0-.64-1.58-4.36-1.58-5,0-.98-.08-2.01,0-3,0v-2c-1.98-.1-4.01.12-6,0-1.29-.08-2.83.2-4,0v-1c-2.49-7.11.34-14.49,0-21-.03-.66.04-1.34,0-2,2.92-8.47,6.77-14.48,11.88-21.67.79-1.1.91-3.07,1.12-3.33.11-.13,1.26-1.19,2-2,.11-.13,1.87-1.89,2-2,.82-.74,1.87-1.89,2-2,2.43-2.03,12.85-8.61,16.13-10.37,13.13-7.03,31.39-10.68,45.87-6.63Z"/>
  <path class="st3" d="M899,583c4.2-.07,8.85-.25,13,0s9.3,1.75,14,2c3.64.2,7.35-.14,11,0l-1.01,3.47c-10.44,4.35-19.87,13.54-30.99,15.53-.69-.86-1.88-.86-2-1-1.04-1.23-1.81-1.78-2-2-.93-1.08-1.89-1.87-2-2-1.32-1.59-4.99-7.28-6.2-9.3-1.07-1.79-2.2-4.17-2.81-6.19,0-.92,7.51-.48,9.01-.51Z"/>
  <path class="st15" d="M870,584c.43-.71.08-1.73,1.44-3.03,5.82-5.58,10.72,1.13,13.58,6.02l1.96-.62c-.26-2.87,1.22-4.96,3.75-6.21,2.68-1.4,6.55,1.82,8.28,1.83v1c-1.5.03-9.01-.41-9.01.51.62,2.01,1.75,4.39,2.81,6.19,1.21,2.03,4.88,7.71,6.2,9.3.11.13,1.07.92,2,2,.19.22.96.77,2,2-2.59.71-1.74-1.72-2-2s-1.58-1.58-2-2c-.19-.19-1.72-.15-2.51-.94-2.28-2.28-3.17-6.7-7.48-6.05-.67,6.21,12.5,15.81,7.46,20.97-5.7,2.56-11.11,5.78-16.95,8.04-7.3,2.83-26.07,9.62-32.47,5.44-9.88-6.44,2.95-16.63,5.96-23.46,2.56.09,6.03-7.09,6-9h3c.07-.66-.04-1.34,0-2,.02-.33.01-.67,0-1,2.72-1.11,3.3-4.51,5.47-6.07,1.01-.73,2.03-.64,2.53-.93-7.55,12.34-18.45,23.21-24.79,36.35.1,1.11,1.78,3.68,2.78,4.16,5.68,2.75,25.5-3.7,31.96-6.05,1.96-.71,14.42-5.93,14.89-6.6.7-.99.13-3.6-.39-4.82-5.17-5.92-9.64-19.91-15.38-24.6-3.51-2.87-5.58-.48-9.07,1.57Z"/>
  <path class="st3" d="M921,609l25.99-14c.29,6.23-4.59,10.81-5.99,17-.13.58.1,1.36,0,2l-1.86.12-1.14,4.88c-.54.41-.67,1.53-1.79,1.96-.98.37-2.21-.06-3.21.04-.48-1.63-1.49-1.8-3-2-1.17-.15-2.76-.04-4,0l-.05-1.93c-2.91.21-5.27-1.42-7.95-2.07-.31-.08-.68.07-1,0v-2c.14-.18-.36-1.41.19-1.79,1.17-.83,4.48.98,3.81-2.21Z"/>
  <path class="st15" d="M921,609c2.17-3.47,6-5.95,9.47-8.03,2.64-1.58,10.4-4.13,12.26-6.25.89-1.01.81-2.45,1.4-3.59,6.41-1.31,6.24,1.83,4.87,6.86-1.05,3.87-3.45,7.68-5.31,11.24-.72,1.37,0,3.34-2.69,2.76,1.41-6.19,6.28-10.77,5.99-17l-25.99,14Z"/>
  <path class="st15" d="M937,584c1.37.58,3.57.31,2.89,2.9-.85,0-1.29.2-1.79.9-4.78,6.66-14.15,10.37-21.8,14-3.58,1.7-5.28,5.08-10.73,4.26-1.16-.19-.36-1.8-.57-2.07,11.12-1.99,20.55-11.18,30.99-15.53l1.01-3.47v-1Z"/>
  <path class="st14" d="M926,577c.91.06,2.23,1.19,5,1-.84,5.53,2.16,4.37,6,6v1c-3.65-.14-7.36.2-11,0,.07-3.62-3.14-3.13-6-3.01.17-1.72.94-3.23,1-4.99,1.66.09,3.35-.11,5,0Z"/>
  <path class="st10" d="M909,616c2.35-.29,4.11.41,4,3-2.44-.12-5.04-2.09-7.8.22l-2.2,10.78c0-.13-.96-1.08-1.04-2.42-.11-1.75-.26-5.03.04-6.58.62-3.14,3.99-4.84,7-5Z"/>
  <path class="st1" d="M915,614c.16.02,1.09.81,2,1,.32.07.69-.08,1,0,.48,1.35-.79,2.31-1,3-.76-.11-1.73.97-2,1-.62.07-1.37.03-2,0,.11-2.59-1.65-3.29-4-3-1.02-2.84,3.45-2.28,6-2Z"/>
  <path class="st4" d="M945,577c.1,4.34-7.1,4.34-7,0,2.29.08,4.71.12,7,0Z"/>
  <path class="st4" d="M933,577c-.54.5-1.26.95-2,1-2.77.19-4.09-.94-5-1,.38-1.25,2.43-1.18,3.5-1.1,2.11.17,3.32,1.08,3.5,1.1Z"/>
  <path class="st15" d="M917,613v2c-.91-.19-1.84-.98-2-1,.35-.71,1.87-.83,2-1Z"/>
  <path class="st2" d="M913,619c.63.03,1.38.07,2,0,.26,1.01,1.15.92,2,1,.65.06,1.37-.1,2,0-.61,3.11,4.67,3.09,7,4s4.69,2.46,7,3c.45,2.21-.4,3.38-1.35,5.15-2.98,5.56-17.39,27.97-21.22,31.78-2.12,2.12-4.52,2.28-7.43,2.07-.74-1.07-1.3-1.92-2-3,.2-2.93-.28-6.13,0-9,.56-5.67,2.03-10.78,2-17,0-2.32.09-4.68,0-7l2.2-10.78c2.76-2.31,5.36-.34,7.8-.22Z"/>
  <path class="st10" d="M903,637c.03,6.22-1.44,11.33-2,17l-1-1c.22-.54-.07-2.11,0-3,.05-.66-.06-1.34,0-2,.31-3.52.84-7.66,1-11h2Z"/>
  <path class="st0" d="M901,654c-.28,2.87.2,6.07,0,9-.06-.09-1.39.22-1.69-.27-.35-.56-2.04-4.94-2.08-5.41-.26-2.74,2.55-3.77,2.77-4.33l1,1Z"/>
  <path class="st0" d="M892,642c.2.69,1.09,1.45,1.04,2.39-.06.97-1.4.52-2.04.61-.26,1.23-.98,2.84-1,3l-1-1c.12-.55-.05-1.35,0-2,.64-.09,1.36.09,2,0,.21-1-.22-2.21,1-3Z"/>
  <path class="st0" d="M900,650l-.7-.8.7-1.2c-.06.66.05,1.34,0,2Z"/>
  <path class="st4" d="M996,454c.53,1.24-.92,2.54-1,3l-1-2c.19-.36-.14-1.39,0-2l2,1Z"/>
  <path class="st0" d="M824,566c-3.95-.99-12.5-.93-17.45-2.05-4.36-.98-15.68-4.46-19.04-6.96-1.01-.76-3.72-3.17-3.47-4.39,1.22-1.56,3.27-3.2,5.03-4.04,4.56-2.16,9.06-1.83,13.39-2.61,10.04-1.81,20.03-4.33,30.09-5.91,3.84-.6,8.49.31,12.44-.05.79,3.39-3.64,1.54-6.22,2.27s-14.7,6.39-15.84,8.15c-2.72,4.2-.63,8.17,3.07,10.57.27,2.38.34,3.95-2,5Z"/>
  <path class="st14" d="M826,561c5.71,3.7,19.95,8.79,26.5,9.01,1.67.06,2.8.87,1.49,1.98-2.4-.2-5.13.39-7.45-.04-7.48-1.39-15.36-4.16-22.54-5.96,2.34-1.05,2.27-2.62,2-5Z"/>
  <path class="st14" d="M866,573h-3s0,2,0,2c-2.89-.92-3.89-.66-6.5-1.02-1.35-.18-3.14-.57-1.49-1.98,2.76.27,5.93-.39,8.6-.07,1.55.19,2.22,1.03,2.39,1.06Z"/>
  <path class="st14" d="M900,405c-.62,1.2-1.95,1.87-2,2l-4-1c.15-.37.86-.68,1-1h5Z"/>
  <path class="st14" d="M897,411c.24-.71.05-1.58,1-2-.14.82.05,1.75-1,2Z"/>
  <path class="st4" d="M980,630c.08.8-.91,1.6-1,2-5.65,2.12-11.78,4.79-17.76,5.75-1.94.31-3.74,1.25-3.24-1.75,6.75-.39,15.73-3.34,22-6Z"/>
  <path class="st15" d="M918,615c2.68.64,5.04,2.28,7.95,2.07l.05,1.93c-1.1.04-2.22-.18-3.31.19l-.69.81c-.73-.23-2.08.14-3,0-.63-.1-1.35.06-2,0,.11-.63-.16-1.48,0-2,.21-.69,1.48-1.65,1-3Z"/>
  <path class="st4" d="M949,614c-1.6,4.3-3.01,7.26-3,12-4.38.59-.69-7.29-.13-8.62.72-1.69.13-3.56,3.13-3.38Z"/>
  <path class="st4" d="M953,634c-4.27-.75-6.46-2.35-7-7,3.03.62,6.43,4.06,7,7Z"/>
  <path class="st10" d="M922,620c.22.07,1.9,2.59,3.83,2.18l.17,1.82c-2.33-.91-7.61-.89-7-4,.92.14,2.27-.23,3,0Z"/>
  <path class="st4" d="M954,602c-.9,3.63-2.36,4.45-3,6l-1.01-.52,2.2-5.3,1.81-.18Z"/>
  <path class="st15" d="M941,614c-.19,1.25.4,2.73-.47,4.04-.69,1.03-2.19.71-2.53.96l1.14-4.88,1.86-.12Z"/>
  <path class="st15" d="M933,621c-.18.02-.78,1.56-2.02.58l-.98-2.58c1.51.2,2.52.37,3,2Z"/>
  <path class="st4" d="M954,634c.62.1,1.35-.1,2,0v2c-.66-.04-1.33.07-2,0v-2Z"/>
  <path class="st0" d="M896,402l2.33.02,1.18-2.03,1.49.02v1.99c-.93,1.58-.75,2.52-1,3h-5c.31-.68.37-1.69,1-3Z"/>
  <path class="st14" d="M895,575c.99,0,2.02-.08,3,0,2.84.24,2.95.02,5,0,1-.01,2,0,3,0,.12.61-.18,1.56,0,2,.51,1.22,1.4.73,2,1,2.9,1.28,4.72,1.23,8.01,1v-2c.66.02,1.33-.02,1.99,0l-.12,3.86-5.88,2.14c-4.15-.25-8.8-.07-13,0v-1c.25,0,2.6-1.76,4.01-1,.77-6.56-6.7-3.01-10.35-3.98-1.05-.25-.57-1.96-.66-2.01h3Z"/>
  <path class="st4" d="M885,551c.34,6.51-2.49,13.89,0,21h-2c-.09-1.09-.57-2.02-1-3,.29-5.08-.4-10.52,0-15.55.24-3.07-.5-2.58,3-2.45Z"/>
  <path class="st6" d="M859,594c-.03-1.86-2.51-3.61,1.51-5.99h1.48c.04.99-.04,2,0,2.99.01.33.02.67,0,1h-2s0,2,0,2h-1Z"/>
  <path class="st4" d="M889,573c1.99.12,4.02-.1,6.01,0v2h-3.01c-.37-.23-2.22.41-2.84-.13l-.16-1.87Z"/>
  <path class="st15" d="M885,572v1c-.85-.15-1.67.17-2-1h2Z"/>
  <path class="st4" d="M1009,596l2.01.55-.02,3.45h-2c.06-1.33-.06-2.67,0-4Z"/>
  <path class="st14" d="M980,516c.08-.84,0-1.76,1-2-.26.68-.05,1.58-1,2Z"/>
  <path class="st4" d="M990,485c.52,1.29-.88,2.47-1,3l-1-3h2Z"/>
  <path class="st4" d="M994,465l-1,3c-.03-.18-1.77-.58-.99-3h1.99Z"/>
  <path class="st4" d="M983,529c-.11,1.58-.59,3.09-2,4-.03-.45-1.85-2.35-1-4h3Z"/>
  <path class="st4" d="M981,535c-.14,1.59-.57,3.08-2,4-.03-.45-1.85-2.35-1-4h3Z"/>
  <path class="st4" d="M979,541c-.14,1.59-.57,3.08-2,4-.03-.45-1.85-2.35-1-4h3Z"/>
  <path class="st4" d="M977,547c-.14,1.59-.57,3.08-2,4,0-.13-1.39-.96-.96-2.35l2.96-1.65Z"/>
  <rect class="st0" x="999.5" y="526.5" width="2.99" height="1.99" transform="translate(471.89 1527.65) rotate(-89.91)"/>
  <path class="st15" d="M910,575v2c1.99.07,4-.07,6,0v2c-3.28.24-5.1.29-8-1l-2-1c-.18-.44.12-1.39,0-2,1.33,0,2.67.03,4,0Z"/>
  <path class="st4" d="M910,575c3.66-.08,7.35.05,11.01,0,0,.66.02,1.33,0,2-.99-.05-2,.03-3,0-.67-.02-1.33.02-2,0-2-.07-4.01.07-6.01,0v-2Z"/>
  <path class="st4" d="M903,575c-2.05.02-2.16.24-5,0,.64-1.58,4.36-1.58,5,0Z"/>
  <path class="st15" d="M921,577c-.06,1.76-.83,3.28-1,4.99,2.86-.12,6.07-.61,6,3.01-4.7-.25-10.04-1.76-14-2l5.88-2.14.12-3.86c1,.03,2.01-.05,3,0Z"/>
  <path class="st2" d="M870,584c3.5-2.05,5.57-4.43,9.07-1.57,5.74,4.69,10.22,18.69,15.38,24.6.52,1.22,1.09,3.84.39,4.82-.47.66-12.93,5.88-14.89,6.6-6.46,2.35-26.29,8.8-31.96,6.05-1-.48-2.68-3.06-2.78-4.16,6.34-13.13,17.24-24.01,24.79-36.35Z"/>
  <path class="st0" d="M862,592c-.04.66.07,1.34,0,2h-2s0-2,0-2h2Z"/>
  <path class="st10" d="M917,618c-.16.52.11,1.37,0,2-.85-.08-1.74,0-2-1,.27-.03,1.24-1.11,2-1Z"/>
  <path class="st4" d="M908,578c-.6-.27-1.49.22-2-1l2,1Z"/>
</svg>