<?xml version="1.0" encoding="UTF-8"?>
<svg id="Layer_1" xmlns="http://www.w3.org/2000/svg" version="1.1" viewBox="0 0 1920 1080">
  <!-- Generator: Adobe Illustrator 29.1.0, SVG Export Plug-In . SVG Version: 2.1.0 Build 142)  -->
  <defs>
    <style>
      .st0 {
        fill: #ec3102;
      }

      .st1 {
        fill: #e72e00;
      }

      .st2 {
        fill: #fe8e36;
      }

      .st3 {
        fill: #fe7b08;
      }

      .st4 {
        fill: #fe8113;
      }

      .st5 {
        fill: #fe8217;
      }

      .st6 {
        fill: #fe9e60;
      }

      .st7 {
        fill: #e32e00;
      }

      .st8 {
        fill: #d62f01;
      }

      .st9 {
        fill: #fe8725;
      }

      .st10 {
        fill: #fe9954;
      }

      .st11 {
        fill: #dd2e00;
      }

      .st12 {
        fill: #fe9345;
      }

      .st13 {
        fill: #fefefe;
      }
    </style>
  </defs>
  <path class="st13" d="M1216,284v512h-512V284h512ZM940,455c-10.12.91-22.12,2.68-32,5-11.21,2.63-24.46,7.34-35,12-47.2,20.88-92.54,68.69-113,116-2.46,5.69-3.85,6.71-1.73,13.24,1.33,4.1,4.62,7.45,8.73,8.76,6.47,2.06,16.86.9,24,1,9.65.14,19.35.02,29,0,7.98-.01,16.02.12,24,0,4.98-.08,10.03.22,15,0,32.68-1.44,31.17-18.47,46.57-40.93,14.5-21.14,32.96-38.8,55.43-50.07,12.22,6.95,25.33,16.81,35,27,6.54,6.89,16.78,20.05,22,28,4.68,7.14,7.85,15.11,13,22,7.87,10.54,14.51,13.2,28,14,29.51,1.74,60.71-1.22,90.41-.09,8.41-1.85,13.61-7.17,12.59-15.91-.81-6.96-7.18-17.22-10.83-23.67-30.09-53.18-74.29-93.4-134.17-109.33-5.04-1.34-9.81-3.01-15-4-3.36-.64-7.78-1.59-11-2-7.24-.93-14.72-.68-22-1-9.74-.43-18.96-.9-29,0Z"/>
  <path class="st2" d="M969,455c-48.51,50.96-98.19,100.82-147.04,151.46l-1.96,4.54c-9.65.02-19.35.14-29,0-.39-2.28.76-3.05,1.96-4.54,15.05-18.64,35.92-34.25,51.01-52.99l96.03-98.47c10.04-.9,19.26-.43,29,0Z"/>
  <path class="st0" d="M1162,595c1.02,8.74-4.18,14.06-12.59,15.91-29.7-1.14-60.9,1.83-90.41.09,2.25-6.43,10.85-10.72,16.01-15.49,17.32-15.99,33.81-36.35,41.99-58.51,3.03,2.63,6.03,4.43,9.02,7.48,14.57,14.81,25.39,32.81,35.98,50.52Z"/>
  <path class="st3" d="M1017,462c59.88,15.93,104.09,56.15,134.17,109.33,3.65,6.46,10.02,16.71,10.83,23.67-10.58-17.71-21.4-35.72-35.98-50.52-2.99-3.04-6-4.84-9.02-7.48-6.99-6.08-11-9.08-19-14-9.43-5.8-13.07-7.16-23-11-15.02-5.81-21.29-7.7-38-9-24.49-1.9-46.75,1.44-69,12l1.96-4.54,47.04-48.46Z"/>
  <path class="st12" d="M940,455l-96.03,98.47c-15.09,18.74-35.96,34.35-51.01,52.99-1.2,1.49-2.35,2.25-1.96,4.54-7.14-.1-17.53,1.06-24-1l1.96-4.54,136.56-139.44,2.48-6.02c9.88-2.32,21.88-4.09,32-5Z"/>
  <path class="st9" d="M991,456c-1.1,1.71-2.15,3.46-3.49,5.01-42.94,49.72-96.66,95.01-141.03,143.96l-2.48,6.02c-7.98.12-16.02-.01-24,0l1.96-4.54c48.85-50.64,98.53-100.5,147.04-151.46,7.28.32,14.76.07,22,1Z"/>
  <path class="st10" d="M767,610c-4.11-1.31-7.4-4.67-8.73-8.76-2.12-6.52-.73-7.54,1.73-13.24,2.3.41,3.29-.2,5.06-1.44,7.19-5.02,20.96-20.9,27.97-28.03,24.04-24.47,52.08-51.15,74.49-76.51,1.81-2.04,7.54-7.48,5.49-10.01,10.54-4.66,23.79-9.37,35-12l-2.48,6.02-136.56,139.44-1.96,4.54Z"/>
  <path class="st11" d="M1075,512c-.9,1.19-1.89,2.7-2.4,4.1-5.31,14.74-17.89,29.84-28.95,40.56-7.58,7.35-15.49,14.69-25.66,18.34-5.22-7.95-15.46-21.11-22-28-.11-2.35,1.4-2.61,2.96-3.54,15.11-9.03,29.09-18.44,36.88-35.12.85-1.83,1.48-3.23,1.16-5.34,16.71,1.3,22.98,3.19,38,9Z"/>
  <path class="st1" d="M1117,537c-8.18,22.17-24.67,42.52-41.99,58.51-5.16,4.77-13.76,9.06-16.01,15.49-13.49-.8-20.13-3.46-28-14,30.45-16.37,52.56-42.93,67-74,8,4.92,12.01,7.92,19,14Z"/>
  <path class="st7" d="M1098,523c-14.44,31.07-36.55,57.63-67,74-5.15-6.89-8.32-14.86-13-22,10.17-3.65,18.08-10.99,25.66-18.34,11.06-10.73,23.64-25.82,28.95-40.56.5-1.4,1.49-2.9,2.4-4.1,9.93,3.84,13.57,5.2,23,11Z"/>
  <path class="st5" d="M1002,458l-.44,4.03c-31.53,31.86-62.33,64.51-93.54,96.5-14.62,14.99-33.25,30.87-46.43,46.57-1.42,1.69-2.76,3.53-2.6,5.9-4.97.22-10.02-.08-15,0l2.48-6.02c44.36-48.95,98.09-94.24,141.03-143.96,1.34-1.55,2.39-3.3,3.49-5.01,3.22.41,7.64,1.36,11,2Z"/>
  <path class="st4" d="M1017,462l-47.04,48.46-1.96,4.54c-3.22,1.53-6.59,4.8-7,5-22.47,11.27-40.93,28.93-55.43,50.07-15.4,22.46-13.89,39.49-46.57,40.93-.16-2.38,1.18-4.21,2.6-5.9,13.17-15.7,31.81-31.58,46.43-46.57,31.2-31.98,62.01-64.63,93.54-96.5l.44-4.03c5.19.99,9.96,2.66,15,4Z"/>
  <path class="st6" d="M760,588c20.46-47.31,65.8-95.12,113-116,2.06,2.54-3.68,7.97-5.49,10.01-22.41,25.36-50.44,52.05-74.49,76.51-7.01,7.13-20.78,23.02-27.97,28.03-1.77,1.24-2.76,1.85-5.06,1.44Z"/>
  <path class="st8" d="M1037,503c.32,2.11-.31,3.51-1.16,5.34-7.79,16.68-21.77,26.1-36.88,35.12-1.56.93-3.07,1.19-2.96,3.54-9.67-10.19-22.78-20.05-35-27,.41-.2,3.78-3.47,7-5,22.25-10.56,44.51-13.9,69-12Z"/>
</svg>